<svg preserveAspectRatio="none" width="100%" height="100%" overflow="visible" style="display: block;" viewBox="0 0 17 17" fill="none" xmlns="http://www.w3.org/2000/svg">
<g id="Group 1707478086">
<path id="Vector" d="M10.2895 17H9.52493C9.34752 16.9734 9.18786 16.9503 9.01932 16.9166C7.49444 16.6266 6.14411 15.7502 5.25833 14.4755C4.74917 13.7659 4.3234 13.0013 3.86746 12.2562C3.01237 10.8618 2.15905 9.46559 1.3075 8.06763C1.1971 7.9046 1.12099 7.72083 1.08378 7.52748C1.04658 7.33414 1.04905 7.13524 1.09107 6.94288C1.14096 6.69789 1.25468 6.47043 1.42072 6.28351C1.58676 6.0966 1.79924 5.95686 2.03664 5.87845L2.13244 6.03102L3.64394 8.56791C3.667 8.60517 3.68828 8.6442 3.71312 8.68145C3.72872 8.71537 3.75114 8.74571 3.77899 8.77056C3.80684 8.79542 3.83952 8.81427 3.87499 8.82592C3.91045 8.83758 3.94794 8.84179 3.98511 8.8383C4.02228 8.83481 4.05832 8.82369 4.091 8.80564C4.12383 8.78703 4.1523 8.7616 4.17449 8.73107C4.19668 8.70054 4.21207 8.66562 4.21964 8.62864C4.2272 8.59166 4.22676 8.5535 4.21834 8.51671C4.20992 8.47992 4.19372 8.44535 4.17083 8.41535C3.91714 7.98248 3.65813 7.55138 3.39912 7.11851C2.91657 6.31309 2.42693 5.51122 1.94794 4.70225C1.84137 4.53006 1.77207 4.33745 1.74449 4.13684C1.71692 3.93623 1.73169 3.73206 1.78785 3.53751C1.84401 3.34295 1.94031 3.16232 2.07056 3.00726C2.2008 2.8522 2.36208 2.72616 2.54402 2.63725C2.66643 2.5787 2.72143 2.5858 2.80481 2.71176C3.69183 4.17358 4.58182 5.63186 5.47476 7.08658C5.50456 7.1397 5.53713 7.19122 5.57233 7.24092C5.61109 7.296 5.66953 7.33407 5.73556 7.34728C5.8016 7.36049 5.87019 7.34782 5.92714 7.31188C5.98291 7.27881 6.02413 7.22588 6.04255 7.16371C6.06098 7.10154 6.05524 7.03471 6.02649 6.97659C6.00648 6.93138 5.98148 6.88853 5.95198 6.84886C5.4789 6.073 5.00582 5.29892 4.53273 4.52662C4.06261 3.75845 3.58894 2.99206 3.12413 2.22034C3.0018 2.03333 2.92465 1.82042 2.89879 1.59846C2.87293 1.37649 2.89906 1.15155 2.97513 0.94142C3.0512 0.731293 3.17511 0.541744 3.33706 0.387764C3.49902 0.233783 3.69457 0.119593 3.90827 0.0542244C4.21444 -0.0333922 4.54129 -0.0144005 4.83525 0.108083C5.12921 0.230566 5.37283 0.449278 5.52621 0.728368C6.39313 2.14761 7.25887 3.56212 8.12342 4.9719C8.15151 5.02572 8.18541 5.07629 8.22454 5.1227C8.26188 5.16883 8.31491 5.19958 8.3735 5.20907C8.43208 5.21856 8.49211 5.20613 8.5421 5.17415C8.5977 5.14716 8.64113 5.10026 8.6638 5.04277C8.68647 4.98527 8.68672 4.92136 8.66451 4.86369C8.64216 4.80746 8.61359 4.75391 8.57935 4.70402L6.25357 0.8969L6.16309 0.737237C6.3097 0.579027 6.49191 0.458041 6.6946 0.384304C6.8973 0.310568 7.11465 0.286202 7.32865 0.313235C7.55513 0.340043 7.77195 0.420506 7.96109 0.547937C8.15023 0.675367 8.30623 0.846089 8.41614 1.04592C9.35639 2.58343 10.3026 4.12095 11.2546 5.65846C11.283 5.70636 11.3132 5.75249 11.3433 5.80039C11.3859 5.52838 11.4125 5.25412 11.4232 4.979C11.4419 4.6286 11.5912 4.29793 11.8417 4.05218C12.0922 3.80644 12.4257 3.66346 12.7764 3.65143C13.1271 3.63941 13.4695 3.75921 13.7363 3.98723C14.003 4.21524 14.1746 4.5349 14.2173 4.8832C14.2581 5.23801 14.2865 5.61056 14.3202 5.97424C14.5012 7.94581 14.6821 9.91738 14.8631 11.8889C14.9225 12.4634 14.8621 13.0439 14.6857 13.5938C14.1268 15.2774 12.8584 16.2123 11.2724 16.7871C10.9504 16.8819 10.6219 16.953 10.2895 17Z" fill="var(--fill-0, #FFD600)"/>
<path id="Vector_2" d="M0 11.7203C0.0425773 11.5269 0.0798334 11.3335 0.131281 11.1419C0.182729 10.9503 0.308685 10.8616 0.464802 10.9024C0.620918 10.9433 0.695429 11.0887 0.642207 11.2856C0.237722 12.6641 1.04137 13.858 1.80244 14.4098C1.92734 14.4904 2.05913 14.5599 2.19628 14.6173C2.23195 14.6279 2.26507 14.6457 2.29358 14.6695C2.32209 14.6934 2.34539 14.7229 2.36202 14.7562C2.37866 14.7895 2.38828 14.8258 2.39029 14.863C2.39229 14.9001 2.38664 14.9373 2.37369 14.9721C2.36019 15.007 2.33949 15.0387 2.31294 15.065C2.28639 15.0913 2.25458 15.1118 2.2196 15.125C2.18461 15.1382 2.14723 15.1439 2.1099 15.1418C2.07256 15.1396 2.03611 15.1295 2.00291 15.1123C1.47129 14.8972 1.01731 14.5261 0.700751 14.0479C0.335044 13.5722 0.102934 13.0075 0.0283855 12.4122C0.023163 12.3915 0.0147859 12.3718 0.00354887 12.3536L0 11.7203Z" fill="var(--fill-0, #444444)"/>
<path id="Vector_3" d="M1.44586 11.9119C1.47602 11.7345 1.49731 11.5571 1.53811 11.3904C1.54345 11.3533 1.55651 11.3177 1.57644 11.286C1.59637 11.2543 1.62274 11.2271 1.65384 11.2062C1.68494 11.1853 1.72007 11.1712 1.75697 11.1647C1.79388 11.1582 1.83173 11.1596 1.86809 11.1686C1.90437 11.1782 1.93818 11.1954 1.9673 11.2191C1.99641 11.2428 2.02015 11.2724 2.03693 11.306C2.05371 11.3395 2.06315 11.3763 2.06463 11.4138C2.06611 11.4513 2.05958 11.4887 2.04549 11.5234C1.88228 12.1195 2.07565 12.6109 2.48546 13.0349C2.59036 13.1363 2.70998 13.2212 2.84027 13.2868C3.01768 13.3809 3.08332 13.5121 3.01768 13.6576C3.0019 13.6934 2.97853 13.7253 2.9492 13.7511C2.91988 13.7769 2.88528 13.7961 2.84782 13.8072C2.81036 13.8183 2.77093 13.8212 2.73225 13.8156C2.69357 13.81 2.65658 13.796 2.62384 13.7747C2.35176 13.644 2.11182 13.455 1.92111 13.221C1.73039 12.987 1.59357 12.7139 1.52037 12.4211C1.48344 12.2534 1.45854 12.0832 1.44586 11.9119Z" fill="var(--fill-0, #444444)"/>
<g id="Group 1158">
<path id="Vector_4" d="M17.0097 4.54988C16.9937 4.70955 16.983 4.86921 16.9635 5.02888C16.9369 5.22048 16.8181 5.32869 16.6619 5.31095C16.5058 5.29321 16.4083 5.16725 16.4366 4.97033C16.5272 4.42672 16.4453 3.86841 16.2025 3.37368C15.9236 2.79045 15.4679 2.30998 14.9003 2.00056C14.7811 1.94345 14.657 1.89713 14.5295 1.86219C14.4926 1.85659 14.4572 1.84338 14.4256 1.82337C14.394 1.80336 14.3669 1.77701 14.3461 1.74598C14.3252 1.71495 14.311 1.67992 14.3045 1.64312C14.2979 1.60632 14.299 1.56856 14.3078 1.53222C14.3176 1.49609 14.335 1.46245 14.3587 1.4335C14.3824 1.40454 14.412 1.38092 14.4455 1.36417C14.479 1.34743 14.5156 1.33794 14.553 1.33633C14.5905 1.33471 14.6278 1.34101 14.6626 1.35481C15.189 1.49776 15.6612 1.79345 16.0197 2.20458C16.6436 2.8269 16.9989 3.66877 17.0097 4.54988Z" fill="var(--fill-0, #444444)"/>
<path id="Vector_5" d="M15.0511 4.74494C15.0635 4.41718 14.9697 4.09419 14.7836 3.82406C14.5976 3.55394 14.3292 3.35114 14.0186 3.24586C13.9838 3.23704 13.9512 3.22132 13.9226 3.19964C13.894 3.17796 13.8701 3.15076 13.8522 3.11965C13.8343 3.08854 13.8229 3.05417 13.8186 3.01856C13.8142 2.98294 13.8171 2.94683 13.827 2.91234C13.8363 2.87706 13.8529 2.84412 13.8758 2.81567C13.8986 2.78721 13.9272 2.76386 13.9597 2.74714C13.9921 2.73042 14.0277 2.7207 14.0641 2.71859C14.1005 2.71649 14.137 2.72206 14.1712 2.73494C14.5133 2.84149 14.8204 3.03826 15.0601 3.30455C15.2999 3.57084 15.4635 3.89682 15.5336 4.24821C15.5763 4.47025 15.5871 4.69726 15.5656 4.92235C15.5656 5.12991 15.4343 5.23281 15.264 5.21684C15.0937 5.20087 15.028 5.08201 15.0405 4.87445L15.0511 4.74494Z" fill="var(--fill-0, #444444)"/>
</g>
</g>
</svg>
