<svg preserveAspectRatio="none" width="100%" height="100%" overflow="visible" style="display: block;" viewBox="0 0 23 20" fill="none" xmlns="http://www.w3.org/2000/svg">
<g id="menu - iocn 1" clip-path="url(#clip0_2026_1745)">
<path id="Vector" d="M0 9.71997C0.0157926 9.68997 0.029462 9.65828 0.04085 9.62526C0.218458 8.9541 0.597948 8.58943 1.15919 8.56855C1.3735 8.56035 1.58782 8.56855 1.80213 8.56855C8.32272 8.56855 14.8435 8.56979 21.3645 8.57228C21.5559 8.56637 21.7469 8.59704 21.9311 8.66326C22.1714 8.76444 22.3771 8.96595 22.5142 9.23446C22.6512 9.50298 22.7114 9.82238 22.6847 10.1398C22.6604 10.4573 22.5518 10.7551 22.3765 10.9852C22.2012 11.2152 21.9693 11.3641 21.7185 11.4076C21.594 11.4268 21.4686 11.4353 21.3432 11.4329C14.7042 11.4329 8.06499 11.4362 1.4256 11.4426C0.721089 11.4426 0.225562 11.1555 0 10.2808V9.71997Z" fill="var(--fill-0, white)"/>
<path id="Vector_2" d="M14.1589 2.85395C11.7213 2.85395 9.28415 2.85395 6.84737 2.85395C6.04754 2.85395 5.50347 1.95906 5.72252 1.02092C5.78867 0.73808 5.92302 0.488156 6.10695 0.305772C6.29089 0.123388 6.5153 0.017574 6.74909 0.00298587C6.80119 0.00298587 6.8527 0.00298587 6.9042 0.00298587H21.4592C22.0512 0.00298587 22.4804 0.369143 22.6367 0.994819C22.6899 1.20622 22.7033 1.43034 22.6758 1.64939C22.6483 1.86843 22.5806 2.07638 22.4781 2.25675C22.3757 2.43711 22.2413 2.58492 22.0856 2.68845C21.9299 2.79199 21.7572 2.8484 21.5812 2.8532C21.1667 2.86588 20.7523 2.8532 20.3379 2.8532L14.1589 2.85395Z" fill="var(--fill-0, white)"/>
<path id="Vector_3" d="M16.4453 19.9978C14.7474 19.9978 13.0495 20.0037 11.3539 19.9978C11.054 19.9998 10.7657 19.8518 10.5525 19.5861C10.3393 19.3205 10.2186 18.959 10.2169 18.5812C10.2153 18.2035 10.3328 17.8403 10.5437 17.5718C10.7546 17.3032 11.0416 17.1511 11.3415 17.149C11.8062 17.1423 12.2715 17.149 12.7363 17.149C15.6522 17.149 18.5679 17.149 21.4835 17.149C22.1347 17.149 22.6308 17.683 22.6871 18.4436C22.7492 19.2878 22.2354 19.997 21.5403 19.9992C19.8406 20.0022 18.1427 19.9978 16.4453 19.9978Z" fill="var(--fill-0, white)"/>
</g>
<defs>
<clipPath id="clip0_2026_1745">
<rect width="22.6906" height="20" fill="white"/>
</clipPath>
</defs>
</svg>
