<svg preserveAspectRatio="none" width="100%" height="100%" overflow="visible" style="display: block;" viewBox="0 0 14 14" fill="none" xmlns="http://www.w3.org/2000/svg">
<g id="Group 1707478058">
<path id="Vector" d="M6.72461 0.516602L6.7334 0.517578C6.75455 0.518243 6.7754 0.526706 6.79004 0.541992C6.80451 0.557206 6.8127 0.577636 6.8125 0.598633V0.599609C6.81225 0.617217 6.8045 0.634076 6.79199 0.646484C6.77948 0.658838 6.7627 0.665926 6.74512 0.666016H6.73438C5.96083 0.685329 5.17544 0.802256 4.42285 1.13281C2.34398 2.04679 1.04297 3.65002 0.727539 5.92578C0.301628 9.00262 2.17108 11.7894 5.15332 12.6064V12.6074C5.66386 12.7481 6.21301 12.7785 6.65625 12.8232V12.8242C6.75159 12.834 6.79326 12.8649 6.80371 12.875C6.80818 12.8794 6.80927 12.882 6.80957 12.8828C6.81026 12.8847 6.81209 12.8922 6.81152 12.9082V12.9092C6.81091 12.9244 6.80794 12.9337 6.80566 12.9385C6.80332 12.9433 6.79971 12.948 6.79395 12.9531C6.78291 12.9629 6.75063 12.9829 6.68457 12.9824C5.31418 12.9687 3.98614 12.5057 2.90527 11.6631C1.82421 10.8203 1.0506 9.64535 0.703125 8.31934C-0.155489 5.04072 1.79638 1.67458 5.02637 0.760742L5.34277 0.680664C5.6671 0.607084 5.97138 0.571789 6.33496 0.517578H6.42578C6.56793 0.51757 6.63134 0.512047 6.72461 0.516602Z" fill="var(--fill-0, white)" stroke="var(--stroke-0, #222222)"/>
<path id="Vector_2" d="M10.6028 4.36601C10.6098 4.36791 10.6163 4.37252 10.6213 4.37773L10.6281 4.38359C11.4026 5.15294 12.1745 5.92553 12.9436 6.70097V6.70194C12.9592 6.71778 12.9661 6.73032 12.969 6.7371C12.9717 6.74354 12.9729 6.74776 12.9729 6.75077C12.9729 6.75341 12.9725 6.77509 12.9397 6.80839H12.9387C12.177 7.5794 11.4092 8.34682 10.636 9.11015L10.6291 9.11796C10.6231 9.12415 10.6156 9.12925 10.6076 9.13261C10.5998 9.13591 10.5908 9.13749 10.5822 9.13749C10.5739 9.13744 10.5656 9.13582 10.5578 9.13261C10.5499 9.12925 10.5424 9.12414 10.5363 9.11796L10.5295 9.11015L10.5129 9.08573C10.5091 9.07652 10.507 9.06641 10.5071 9.05644C10.5072 9.04669 10.5091 9.03708 10.5129 9.02812C10.5168 9.01911 10.5225 9.01053 10.5295 9.0037L10.5412 8.99198C10.9214 8.60414 11.3068 8.22303 11.6965 7.83476L11.6955 7.83378C11.7475 7.78296 11.8053 7.7197 11.8528 7.66874L12.636 6.82792H5.29807C5.25133 6.82957 5.20482 6.8242 5.1594 6.81327C5.14794 6.80815 5.13798 6.80045 5.13108 6.78984C5.12284 6.77716 5.11867 6.76189 5.12033 6.74687L5.12131 6.74394C5.12332 6.72581 5.13159 6.70873 5.14475 6.69609C5.15798 6.68346 5.17532 6.67578 5.19358 6.6746H5.19748C5.2364 6.67182 5.23093 6.67557 5.34104 6.67558H12.5696L11.8586 5.84941L11.7141 5.68534C11.3133 5.28316 10.9234 4.90405 10.5403 4.50663L10.5295 4.49589L10.51 4.46171C10.5066 4.44917 10.5066 4.43616 10.51 4.42362C10.5135 4.41093 10.52 4.39859 10.5295 4.38944C10.539 4.38037 10.5509 4.37392 10.5637 4.37089L10.5813 4.36698C10.5881 4.36508 10.5959 4.36422 10.6028 4.36601Z" fill="var(--fill-0, white)" stroke="var(--stroke-0, #222222)"/>
</g>
</svg>
