<svg preserveAspectRatio="none" width="100%" height="100%" overflow="visible" style="display: block;" viewBox="0 0 18 11" fill="none" xmlns="http://www.w3.org/2000/svg">
<path id="Cellular Connection" d="M2.01562 6.66699C2.57204 6.66712 3.02344 7.11479 3.02344 7.66699V9.66699C3.02326 10.219 2.57194 10.6669 2.01562 10.667H1.00781C0.45139 10.667 0.000177582 10.2191 0 9.66699V7.66699C0 7.11471 0.45128 6.66699 1.00781 6.66699H2.01562ZM6.71777 4.66699C7.27431 4.66699 7.72559 5.11471 7.72559 5.66699V9.66699C7.72541 10.2191 7.2742 10.667 6.71777 10.667H5.70996C5.15366 10.6668 4.70233 10.219 4.70215 9.66699V5.66699C4.70215 5.1148 5.15356 4.66714 5.70996 4.66699H6.71777ZM11.4209 2.33301C11.9773 2.33308 12.4285 2.78092 12.4287 3.33301V9.66699C12.4285 10.2191 11.9773 10.6669 11.4209 10.667H10.4131C9.85665 10.667 9.40545 10.2191 9.40527 9.66699V3.33301C9.40546 2.78088 9.85666 2.33301 10.4131 2.33301H11.4209ZM16.123 0C16.6796 0 17.1309 0.447715 17.1309 1V9.66699C17.1307 10.2191 16.6795 10.667 16.123 10.667H15.1162C14.5598 10.667 14.1086 10.2191 14.1084 9.66699V1C14.1084 0.447715 14.5597 0 15.1162 0H16.123Z" fill="var(--fill-0, white)"/>
</svg>
