<svg preserveAspectRatio="none" width="100%" height="100%" overflow="visible" style="display: block;" viewBox="0 0 163 82" fill="none" xmlns="http://www.w3.org/2000/svg">
<path id="Ellipse 676" d="M162.299 81.1496C162.299 70.4929 160.2 59.9405 156.122 50.095C152.044 40.2495 146.066 31.3036 138.531 23.7682C130.996 16.2327 122.05 10.2553 112.204 6.17714C102.359 2.099 91.8063 -4.6582e-07 81.1496 0C70.4929 4.6582e-07 59.9405 2.099 50.095 6.17715C40.2495 10.2553 31.3036 16.2327 23.7682 23.7682C16.2327 31.3036 10.2553 40.2495 6.17714 50.095C2.09899 59.9405 -9.3164e-07 70.4929 0 81.1496L17.0017 81.1496C17.0017 72.7256 18.6609 64.384 21.8846 56.6013C25.1084 48.8185 29.8335 41.7468 35.7902 35.7902C41.7468 29.8335 48.8185 25.1084 56.6012 21.8846C64.384 18.6609 72.7256 17.0017 81.1496 17.0017C89.5736 17.0017 97.9152 18.6609 105.698 21.8846C113.481 25.1084 120.552 29.8335 126.509 35.7902C132.466 41.7468 137.191 48.8185 140.415 56.6012C143.638 64.384 145.298 72.7256 145.298 81.1496H162.299Z" fill="var(--fill-0, #FFD2C8)"/>
</svg>
