<svg preserveAspectRatio="none" width="100%" height="100%" overflow="visible" style="display: block;" viewBox="0 0 16 11" fill="none" xmlns="http://www.w3.org/2000/svg">
<path id="Wifi" d="M5.49023 8.42676C6.78068 7.34462 8.67046 7.34466 9.96094 8.42676C10.0259 8.48497 10.0636 8.56752 10.0654 8.6543C10.0671 8.74085 10.0329 8.82406 9.9707 8.88477L7.9502 10.9072C7.89096 10.9667 7.80985 11 7.72559 11C7.64134 11 7.5602 10.9666 7.50098 10.9072L5.48047 8.88477C5.41822 8.82402 5.38399 8.74087 5.38574 8.6543C5.38759 8.56752 5.42526 8.48493 5.49023 8.42676ZM2.79395 5.72949C5.57432 3.16509 9.87977 3.16509 12.6602 5.72949C12.7228 5.78954 12.7588 5.87161 12.7598 5.95801C12.7607 6.04454 12.7266 6.12807 12.665 6.18945L11.4971 7.36035C11.3767 7.47965 11.182 7.48151 11.0586 7.36523C10.1456 6.54557 8.95724 6.09172 7.72559 6.0918C6.49482 6.09242 5.30782 6.54611 4.39551 7.36523C4.27202 7.48157 4.07741 7.47984 3.95703 7.36035L2.79004 6.18945C2.72839 6.12815 2.69351 6.04457 2.69434 5.95801C2.69527 5.87169 2.73136 5.78951 2.79395 5.72949ZM0.0976562 3.03906C4.36212 -1.01305 11.0901 -1.01313 15.3545 3.03906C15.4161 3.09924 15.4507 3.18185 15.4512 3.26758C15.4516 3.35326 15.4173 3.43528 15.3564 3.49609L14.1875 4.66699C14.067 4.78708 13.8714 4.78814 13.749 4.66992C12.1243 3.13833 9.96743 2.28428 7.72559 2.28418C5.48385 2.28429 3.32793 3.13855 1.70312 4.66992C1.58095 4.78825 1.3851 4.78698 1.26465 4.66699L0.0947266 3.49609C0.0338695 3.43524 -0.000449957 3.35326 0 3.26758C0.000569623 3.18173 0.0358826 3.09922 0.0976562 3.03906Z" fill="var(--fill-0, white)"/>
</svg>
