<svg preserveAspectRatio="none" width="100%" height="100%" overflow="visible" style="display: block;" viewBox="0 0 15 15" fill="none" xmlns="http://www.w3.org/2000/svg">
<path id="Vector" d="M7.86875 7.06875L13.9688 0.96875C14.1938 0.74375 14.1938 0.39375 13.9688 0.16875C13.7438 -0.05625 13.3938 -0.05625 13.1688 0.16875L7.06875 6.26875L0.96875 0.16875C0.74375 -0.05625 0.39375 -0.05625 0.16875 0.16875C-0.05625 0.39375 -0.05625 0.74375 0.16875 0.96875L6.26875 7.06875L0.16875 13.1688C-0.05625 13.3938 -0.05625 13.7438 0.16875 13.9688C0.26875 14.0688 0.41875 14.1438 0.56875 14.1438C0.71875 14.1438 0.86875 14.0938 0.96875 13.9688L7.06875 7.86875L13.1688 13.9688C13.2688 14.0688 13.4188 14.1438 13.5688 14.1438C13.7188 14.1438 13.8688 14.0938 13.9688 13.9688C14.1938 13.7438 14.1938 13.3938 13.9688 13.1688L7.86875 7.06875Z" fill="var(--fill-0, #111928)"/>
</svg>
