<svg preserveAspectRatio="none" width="100%" height="100%" overflow="visible" style="display: block;" viewBox="0 0 196 98" fill="none" xmlns="http://www.w3.org/2000/svg">
<path id="Ellipse 676" d="M195.769 97.8844C195.769 85.03 193.237 72.3015 188.318 60.4256C183.399 48.5498 176.188 37.7591 167.099 28.6697C158.01 19.5803 147.219 12.3702 135.343 7.451C123.467 2.53185 110.739 -5.61882e-07 97.8844 0C85.03 5.61882e-07 72.3015 2.53186 60.4256 7.45101C48.5498 12.3702 37.7591 19.5803 28.6697 28.6697C19.5803 37.7591 12.3702 48.5498 7.451 60.4256C2.53185 72.3015 -1.12376e-06 85.03 0 97.8844L20.5078 97.8844C20.5078 87.7231 22.5092 77.6614 26.3977 68.2736C30.2862 58.8859 35.9858 50.3559 43.1708 43.1708C50.3559 35.9858 58.8859 30.2862 68.2736 26.3977C77.6614 22.5092 87.7231 20.5078 97.8844 20.5078C108.046 20.5078 118.107 22.5092 127.495 26.3977C136.883 30.2862 145.413 35.9858 152.598 43.1708C159.783 50.3559 165.482 58.8859 169.371 68.2736C173.26 77.6614 175.261 87.7231 175.261 97.8844H195.769Z" fill="var(--fill-0, #FFD2C8)"/>
</svg>
