<svg preserveAspectRatio="none" width="100%" height="100%" overflow="visible" style="display: block;" viewBox="0 0 52.3449 31.1605" fill="none" xmlns="http://www.w3.org/2000/svg">
<g id="Mask group">
<mask id="mask0_2014_222" style="mask-type:alpha" maskUnits="userSpaceOnUse" x="0" y="0" width="53" height="32">
<path id="Vector" d="M46.7365 0H5.60836C4.12092 0 2.69441 0.351747 1.64263 0.97786C0.590856 1.60397 -2.58676e-05 2.45316 -2.58676e-05 3.33862L-2.58676e-05 27.8219C-2.58676e-05 28.7073 0.590856 29.5565 1.64263 30.1826C2.69441 30.8087 4.12092 31.1605 5.60836 31.1605H21.6448V20.5666H14.2838V15.5802H21.6448V11.7798C21.6448 7.45695 25.968 5.06914 32.5894 5.06914C35.7604 5.06914 39.0764 5.40579 39.0764 5.40579V9.64862H35.4228C31.8229 9.64862 30.7 10.9785 30.7 12.3425V15.5802H38.7364L37.4511 20.5666H30.7V31.1605H46.7365C48.2239 31.1605 49.6505 30.8087 50.7022 30.1826C51.754 29.5565 52.3449 28.7073 52.3449 27.8219V3.33862C52.3449 2.45316 51.754 1.60397 50.7022 0.97786C49.6505 0.351747 48.2239 0 46.7365 0Z" fill="var(--fill-0, black)"/>
</mask>
<g mask="url(#mask0_2014_222)">
<rect id="Rectangle 3129" x="-5.47788" y="1454.51" width="62.0835" height="67.5615" fill="var(--fill-0, #3B4EFC)"/>
</g>
</g>
</svg>
