<svg preserveAspectRatio="none" width="100%" height="100%" overflow="visible" style="display: block;" viewBox="0 0 52.3449 34.1761" fill="none" xmlns="http://www.w3.org/2000/svg">
<g id="Mask group">
<mask id="mask0_2014_218" style="mask-type:alpha" maskUnits="userSpaceOnUse" x="0" y="0" width="53" height="35">
<path id="Vector" d="M46.7365 -3.05176e-05H5.60835C4.12091 -3.05176e-05 2.6944 0.385758 1.64262 1.07246C0.590847 1.75917 -3.42859e-05 2.69055 -3.42859e-05 3.6617L-3.42859e-05 30.5144C-3.42859e-05 31.4855 0.590847 32.4169 1.64262 33.1036C2.6944 33.7903 4.12091 34.1761 5.60835 34.1761H21.6448V22.557H14.2838V17.088H21.6448V12.9198C21.6448 8.17859 25.968 5.55969 32.5893 5.55969C35.7604 5.55969 39.0764 5.92891 39.0764 5.92891V10.5824H35.4227C31.8229 10.5824 30.7 12.0409 30.7 13.5369V17.088H38.7364L37.4511 22.557H30.7V34.1761H46.7365C48.2239 34.1761 49.6504 33.7903 50.7022 33.1036C51.754 32.4169 52.3449 31.4855 52.3449 30.5144V3.6617C52.3449 2.69055 51.754 1.75917 50.7022 1.07246C49.6504 0.385758 48.2239 -3.05176e-05 46.7365 -3.05176e-05Z" fill="var(--fill-0, black)"/>
</mask>
<g mask="url(#mask0_2014_218)">
<rect id="Rectangle 3129" x="-5.47801" y="959.416" width="62.0835" height="67.5615" fill="var(--fill-0, #3B4EFC)"/>
</g>
</g>
</svg>
