<svg preserveAspectRatio="none" width="100%" height="100%" overflow="visible" style="display: block;" viewBox="0 0 52.3449 33.7478" fill="none" xmlns="http://www.w3.org/2000/svg">
<g id="Mask group">
<mask id="mask0_2007_163" style="mask-type:alpha" maskUnits="userSpaceOnUse" x="0" y="0" width="53" height="34">
<path id="Vector" d="M46.7365 -4.48227e-05H5.60835C4.12091 -4.48227e-05 2.6944 0.380908 1.64262 1.05901C0.590847 1.73711 -3.42859e-05 2.65681 -3.42859e-05 3.61579L-3.42859e-05 30.1319C-3.42859e-05 31.0909 0.590847 32.0106 1.64262 32.6887C2.6944 33.3668 4.12091 33.7477 5.60835 33.7477H21.6448V22.2742H14.2838V16.8738H21.6448V12.7578C21.6448 8.07607 25.968 5.48999 32.5893 5.48999C35.7604 5.48999 39.0764 5.85459 39.0764 5.85459V10.4497H35.4227C31.8229 10.4497 30.7 11.89 30.7 13.3672V16.8738H38.7364L37.4511 22.2742H30.7V33.7477H46.7365C48.2239 33.7477 49.6504 33.3668 50.7022 32.6887C51.754 32.0106 52.3449 31.0909 52.3449 30.1319V3.61579C52.3449 2.65681 51.754 1.73711 50.7022 1.05901C49.6504 0.380908 48.2239 -4.48227e-05 46.7365 -4.48227e-05Z" fill="var(--fill-0, black)"/>
</mask>
<g mask="url(#mask0_2007_163)">
<rect id="Rectangle 3129" x="-5.47801" y="988.181" width="62.0835" height="67.5615" fill="var(--fill-0, #3B4EFC)"/>
</g>
</g>
</svg>
