<svg preserveAspectRatio="none" width="100%" height="100%" overflow="visible" style="display: block;" viewBox="0 0 7 10" fill="none" xmlns="http://www.w3.org/2000/svg">
<path id="Vector" d="M4.67892 5.0004L2.93616 3.4727C2.06008 2.70885 1.17989 1.94499 0.312626 1.1688C0.175959 1.04559 0.0745562 0.888214 0.0188365 0.712844C-0.0546107 0.461948 0.0952216 0.202827 0.320851 0.0764978C0.546481 -0.0498314 0.834395 -0.0222146 1.06708 0.178149C1.56064 0.602968 2.04892 1.03366 2.53602 1.46259L5.91988 4.42457C6.37055 4.81942 6.36938 5.18842 5.91518 5.58328L1.13758 9.7633C0.831456 10.0312 0.511814 10.0735 0.256218 9.88082C-0.072826 9.63404 -0.0869273 9.18278 0.242116 8.88899C0.867886 8.33079 1.50247 7.78317 2.13294 7.23084L4.67892 5.0004Z" fill="var(--fill-0, #101221)"/>
</svg>
