<svg preserveAspectRatio="none" width="100%" height="100%" overflow="visible" style="display: block;" viewBox="0 0 163 82" fill="none" xmlns="http://www.w3.org/2000/svg">
<path id="Ellipse 677" d="M162.819 81.4096C162.819 70.7188 160.714 60.1326 156.622 50.2555C152.531 40.3784 146.535 31.4039 138.975 23.8443C131.415 16.2847 122.441 10.2882 112.564 6.19694C102.687 2.10572 92.1005 -4.67313e-07 81.4096 0C70.7188 4.67313e-07 60.1326 2.10572 50.2555 6.19694C40.3784 10.2882 31.4039 16.2847 23.8443 23.8443C16.2847 31.4039 10.2882 40.3784 6.19694 50.2555C2.10572 60.1326 -9.34625e-07 70.7188 0 81.4096L24.8299 81.4096C24.8299 73.9795 26.2934 66.6221 29.1368 59.7575C31.9802 52.893 36.1478 46.6557 41.4017 41.4017C46.6557 36.1478 52.893 31.9802 59.7575 29.1368C66.6221 26.2934 73.9795 24.8299 81.4096 24.8299C88.8398 24.8299 96.1972 26.2934 103.062 29.1368C109.926 31.9802 116.164 36.1478 121.418 41.4017C126.671 46.6557 130.839 52.893 133.682 59.7575C136.526 66.6221 137.989 73.9795 137.989 81.4096H162.819Z" fill="var(--fill-0, #FF451C)"/>
</svg>
