<svg preserveAspectRatio="none" width="100%" height="100%" overflow="visible" style="display: block;" viewBox="0 0 7 11" fill="none" xmlns="http://www.w3.org/2000/svg">
<path id="Vector" d="M4.67892 5.46451L2.93616 3.79501C2.06008 2.96026 1.17989 2.12552 0.312626 1.27729C0.175959 1.14264 0.0745562 0.970653 0.0188365 0.779006C-0.0546107 0.504823 0.0952216 0.221652 0.320851 0.0835979C0.546481 -0.0544565 0.834395 -0.0242764 1.06708 0.194684C1.56064 0.658932 2.04892 1.1296 2.53602 1.59834L5.91988 4.83524C6.37055 5.26674 6.36938 5.66998 5.91518 6.10148L1.13758 10.6695C0.831456 10.9623 0.511814 11.0085 0.256218 10.7979C-0.072826 10.5282 -0.0869273 10.0351 0.242116 9.71401C0.867886 9.10401 1.50247 8.50556 2.13294 7.90197L4.67892 5.46451Z" fill="var(--fill-0, #101221)"/>
</svg>
