<svg preserveAspectRatio="none" width="100%" height="100%" overflow="visible" style="display: block;" viewBox="0 0 78 36" fill="none" xmlns="http://www.w3.org/2000/svg">
<g id="Mask group">
<mask id="mask0_2155_31" style="mask-type:alpha" maskUnits="userSpaceOnUse" x="0" y="0" width="78" height="36">
<path id="Vector" d="M69.1071 -4.57764e-05H8.29286C6.09345 -4.57764e-05 3.98413 0.396926 2.42892 1.10354C0.873709 1.81016 -1.53817e-07 2.76853 -1.53817e-07 3.76784L-1.53817e-07 31.399C-1.53817e-07 32.3983 0.873709 33.3567 2.42892 34.0633C3.98413 34.7699 6.09345 35.1669 8.29286 35.1669H32.0052V23.2109H21.1209V17.5834H32.0052V13.2943C32.0052 8.41568 38.3977 5.72086 48.1884 5.72086C52.8773 5.72086 57.7805 6.10078 57.7805 6.10078V10.8891H52.378C47.0551 10.8891 45.3948 12.39 45.3948 13.9293V17.5834H57.2777L55.3773 23.2109H45.3948V35.1669H69.1071C71.3065 35.1669 73.4159 34.7699 74.9711 34.0633C76.5263 33.3567 77.4 32.3983 77.4 31.399V3.76784C77.4 2.76853 76.5263 1.81016 74.9711 1.10354C73.4159 0.396926 71.3065 -4.57764e-05 69.1071 -4.57764e-05Z" fill="var(--fill-0, black)"/>
</mask>
<g mask="url(#mask0_2155_31)">
<rect id="Rectangle 3129" x="-8.09997" y="1907.5" width="91.8" height="99.9" fill="var(--fill-0, white)"/>
</g>
</g>
</svg>
