<svg preserveAspectRatio="none" width="100%" height="100%" overflow="visible" style="display: block;" viewBox="0 0 19 19" fill="none" xmlns="http://www.w3.org/2000/svg">
<path id="Vector" d="M9.5 0C4.2655 0 0 4.2655 0 9.5C0 14.7345 4.2655 19 9.5 19C14.7345 19 19 14.7345 19 9.5C19 4.2655 14.7345 0 9.5 0ZM14.041 7.315L8.6545 12.7015C8.5215 12.8345 8.341 12.9105 8.151 12.9105C7.961 12.9105 7.7805 12.8345 7.6475 12.7015L4.959 10.013C4.6835 9.7375 4.6835 9.2815 4.959 9.006C5.2345 8.7305 5.6905 8.7305 5.966 9.006L8.151 11.191L13.034 6.308C13.3095 6.0325 13.7655 6.0325 14.041 6.308C14.3165 6.5835 14.3165 7.03 14.041 7.315Z" fill="var(--fill-0, #FF451C)"/>
</svg>
