<svg preserveAspectRatio="none" width="100%" height="100%" overflow="visible" style="display: block;" viewBox="0 0 78 39" fill="none" xmlns="http://www.w3.org/2000/svg">
<g id="Mask group">
<mask id="mask0_2155_17" style="mask-type:alpha" maskUnits="userSpaceOnUse" x="0" y="0" width="78" height="39">
<path id="Vector" d="M69.1071 7.24792e-05H8.29286C6.09346 7.24792e-05 3.98414 0.435463 2.42892 1.21046C0.873711 1.98546 1.47666e-06 3.03659 1.47666e-06 4.1326L1.47666e-06 34.4378C1.47666e-06 35.5338 0.873711 36.5849 2.42892 37.3599C3.98414 38.1349 6.09346 38.5703 8.29286 38.5703H32.0052V25.4573H21.1209V19.2852H32.0052V14.581C32.0052 9.23025 38.3977 6.27463 48.1884 6.27463C52.8773 6.27463 57.7805 6.69132 57.7805 6.69132V11.9431H52.378C47.0551 11.9431 45.3948 13.5892 45.3948 15.2775V19.2852H57.2777L55.3773 25.4573H45.3948V38.5703H69.1071C71.3065 38.5703 73.4159 38.1349 74.9711 37.3599C76.5263 36.5849 77.4 35.5338 77.4 34.4378V4.1326C77.4 3.03659 76.5263 1.98546 74.9711 1.21046C73.4159 0.435463 71.3065 7.24792e-05 69.1071 7.24792e-05Z" fill="var(--fill-0, black)"/>
</mask>
<g mask="url(#mask0_2155_17)">
<rect id="Rectangle 3129" x="-8.09997" y="1348.85" width="91.8" height="99.9" fill="var(--fill-0, white)"/>
</g>
</g>
</svg>
