<svg preserveAspectRatio="none" width="100%" height="100%" overflow="visible" style="display: block;" viewBox="0 0 34 20" fill="none" xmlns="http://www.w3.org/2000/svg">
<g id="Mask group">
<mask id="mask0_2163_39" style="mask-type:alpha" maskUnits="userSpaceOnUse" x="0" y="0" width="34" height="20">
<path id="Vector" d="M30.2306 9.15527e-05H3.62767C2.66555 9.15527e-05 1.74284 0.216914 1.06252 0.602859C0.3822 0.988804 0 1.51226 0 2.05807L0 17.1499C0 17.6957 0.3822 18.2192 1.06252 18.6051C1.74284 18.9911 2.66555 19.2079 3.62767 19.2079H14.0005V12.6777H9.23922V9.60398H14.0005V7.26132C14.0005 4.59667 16.7969 3.12479 21.0798 3.12479C23.1309 3.12479 25.2758 3.3323 25.2758 3.3323V5.94764H22.9125C20.584 5.94764 19.8577 6.7674 19.8577 7.60817V9.60398H25.0559L24.2245 12.6777H19.8577V19.2079H30.2306C31.1927 19.2079 32.1154 18.9911 32.7957 18.6051C33.476 18.2192 33.8582 17.6957 33.8582 17.1499V2.05807C33.8582 1.51226 33.476 0.988804 32.7957 0.602859C32.1154 0.216914 31.1927 9.15527e-05 30.2306 9.15527e-05Z" fill="var(--fill-0, black)"/>
</mask>
<g mask="url(#mask0_2163_39)">
<rect id="Rectangle 3129" x="-3.54327" y="1583.42" width="40.1574" height="43.7008" fill="var(--fill-0, white)"/>
</g>
</g>
</svg>
