<svg preserveAspectRatio="none" width="100%" height="100%" overflow="visible" style="display: block;" viewBox="0 0 34 22" fill="none" xmlns="http://www.w3.org/2000/svg">
<g id="Mask group">
<mask id="mask0_2163_45" style="mask-type:alpha" maskUnits="userSpaceOnUse" x="0" y="0" width="34" height="22">
<path id="Vector" d="M30.2305 -9.15527e-05H3.62764C2.66552 -9.15527e-05 1.74281 0.237714 1.06249 0.66101C0.382169 1.08431 -3.07579e-05 1.65842 -3.07579e-05 2.25705L-3.07579e-05 18.8094C-3.07579e-05 19.4081 0.382169 19.9822 1.06249 20.4055C1.74281 20.8288 2.66552 21.0666 3.62764 21.0666H14.0005V13.9044H9.23919V10.5332H14.0005V7.96386C14.0005 5.04133 16.7968 3.427 21.0797 3.427C23.1309 3.427 25.2758 3.6546 25.2758 3.6546V6.52305H22.9125C20.584 6.52305 19.8577 7.42215 19.8577 8.34428V10.5332H25.0558L24.2245 13.9044H19.8577V21.0666H30.2305C31.1927 21.0666 32.1154 20.8288 32.7957 20.4055C33.476 19.9822 33.8582 19.4081 33.8582 18.8094V2.25705C33.8582 1.65842 33.476 1.08431 32.7957 0.66101C32.1154 0.237714 31.1927 -9.15527e-05 30.2305 -9.15527e-05Z" fill="var(--fill-0, black)"/>
</mask>
<g mask="url(#mask0_2163_45)">
<rect id="Rectangle 3129" x="-3.54326" y="1278.24" width="40.1574" height="43.7008" fill="var(--fill-0, white)"/>
</g>
</g>
</svg>
