<svg width="240" height="142" viewBox="0 0 240 142" fill="none" xmlns="http://www.w3.org/2000/svg">
<path d="M239.861 20.639C239.861 22.8691 238.823 24.9706 236.989 26.3871L223.5 36.8528V112.834C223.5 128.576 210.026 141.387 193.47 141.387H30.2868C13.7304 141.387 0.257263 128.576 0.257263 112.834V45.8751L4.7688 42.3871V112.834C4.7688 126.216 16.2128 137.098 30.2868 137.098H193.47C207.53 137.098 218.988 126.216 218.988 112.834V34.8081L234.146 23.0695C234.914 22.4681 235.349 21.5828 235.349 20.639C235.349 19.6801 234.914 18.7947 234.146 18.1933L230.492 15.3619L218.988 6.45309V0.92041L222.658 3.7803V3.76526L236.989 14.8757C238.823 16.2906 239.861 18.3938 239.861 20.639Z" fill="#FF00D8"/>
</svg>
