<svg width="224" height="245" viewBox="0 0 224 245" fill="none" xmlns="http://www.w3.org/2000/svg">
<path d="M223.926 93.5766H223.923V28.5909C223.923 12.8481 210.449 0.0371094 193.893 0.0371094H30.7097C14.1534 0.0371094 0.680176 12.8481 0.680176 28.5909V95.5494L5.19175 99.0374V28.5909C5.19175 15.2086 16.6358 4.32694 30.7097 4.32694H193.893C207.953 4.32694 219.411 15.2086 219.411 28.5909V93.5766H219.358L219.432 213.353C219.436 219.684 216.846 225.636 212.14 230.115C207.433 234.593 201.175 237.061 194.517 237.064L21.446 237.122C20.5324 235.418 18.6702 234.251 16.5216 234.251C13.47 234.251 10.9963 236.603 10.9963 239.504C10.9963 242.406 13.47 244.758 16.5216 244.758C18.8441 244.758 20.8311 243.395 21.648 241.464L194.519 241.406C202.396 241.402 209.803 238.482 215.37 233.183C220.94 227.885 224.003 220.84 224 213.348L223.926 93.5766Z" fill="#00FFA3"/>
</svg>
