<svg preserveAspectRatio="none" width="100%" height="100%" overflow="visible" style="display: block;" viewBox="0 0 34 18" fill="none" xmlns="http://www.w3.org/2000/svg">
<g id="Mask group">
<mask id="mask0_2137_47" style="mask-type:alpha" maskUnits="userSpaceOnUse" x="0" y="0" width="34" height="18">
<path id="Vector" d="M30.2306 0.00012207H3.62767C2.66555 0.00012207 1.74284 0.195314 1.06252 0.542758C0.3822 0.890202 0 1.36144 0 1.8528L0 15.4391C0 15.9304 0.3822 16.4017 1.06252 16.7491C1.74284 17.0966 2.66555 17.2918 3.62767 17.2918H14.0005V11.413H9.23922V8.64594H14.0005V6.53698C14.0005 4.13815 16.7969 2.8131 21.0798 2.8131C23.1309 2.8131 25.2758 2.99991 25.2758 2.99991V5.35436H22.9125C20.584 5.35436 19.8577 6.09234 19.8577 6.84923V8.64594H25.0559L24.2245 11.413H19.8577V17.2918H30.2306C31.1927 17.2918 32.1154 17.0966 32.7957 16.7491C33.476 16.4017 33.8582 15.9304 33.8582 15.4391V1.8528C33.8582 1.36144 33.476 0.890202 32.7957 0.542758C32.1154 0.195314 31.1927 0.00012207 30.2306 0.00012207Z" fill="var(--fill-0, black)"/>
</mask>
<g mask="url(#mask0_2137_47)">
<rect id="Rectangle 3129" x="-3.54327" y="2008.18" width="40.1574" height="43.7008" fill="var(--fill-0, white)"/>
</g>
</g>
</svg>
