<svg preserveAspectRatio="none" width="100%" height="100%" overflow="visible" style="display: block;" viewBox="0 0 78 41" fill="none" xmlns="http://www.w3.org/2000/svg">
<g id="Mask group">
<mask id="mask0_2101_68" style="mask-type:alpha" maskUnits="userSpaceOnUse" x="0" y="0" width="78" height="41">
<path id="Vector" d="M69.1071 0H8.29286C6.09345 0 3.98413 0.460479 2.42892 1.28014C0.873709 2.0998 -1.53817e-07 3.21149 -1.53817e-07 4.37066L-1.53817e-07 36.4222C-1.53817e-07 37.5813 0.873709 38.693 2.42892 39.5127C3.98413 40.3324 6.09345 40.7928 8.29286 40.7928H32.0052V26.9242H21.1209V20.3964H32.0052V15.4212C32.0052 9.76205 38.3977 6.63612 48.1884 6.63612C52.8773 6.63612 57.7805 7.07683 57.7805 7.07683V12.6312H52.378C47.0551 12.6312 45.3948 14.3722 45.3948 16.1578V20.3964H57.2777L55.3773 26.9242H45.3948V40.7928H69.1071C71.3065 40.7928 73.4159 40.3324 74.9711 39.5127C76.5263 38.693 77.4 37.5813 77.4 36.4222V4.37066C77.4 3.21149 76.5263 2.0998 74.9711 1.28014C73.4159 0.460479 71.3065 0 69.1071 0Z" fill="var(--fill-0, black)"/>
</mask>
<g mask="url(#mask0_2101_68)">
<rect id="Rectangle 3129" x="-8.09997" y="1577.97" width="91.8" height="99.9" fill="var(--fill-0, white)"/>
</g>
</g>
</svg>
