<svg preserveAspectRatio="none" width="100%" height="100%" overflow="visible" style="display: block;" viewBox="0 0 25 16" fill="none" xmlns="http://www.w3.org/2000/svg">
<g id="Mask group">
<mask id="mask0_2141_98" style="mask-type:alpha" maskUnits="userSpaceOnUse" x="0" y="0" width="25" height="16">
<path id="Vector" d="M21.9676 -4.57764e-05H2.63611C1.93697 -4.57764e-05 1.26646 0.169531 0.772098 0.47138C0.277732 0.773229 0 1.18262 0 1.6095L0 13.4129C0 13.8397 0.277732 14.2491 0.772098 14.551C1.26646 14.8528 1.93697 15.0224 2.63611 15.0224H10.1737V9.91511H6.71384V7.51118H10.1737V5.67898C10.1737 3.59495 12.2057 2.44378 15.318 2.44378C16.8085 2.44378 18.3671 2.60608 18.3671 2.60608V4.65155H16.6498C14.9577 4.65155 14.4299 5.29268 14.4299 5.95025V7.51118H18.2073L17.6032 9.91511H14.4299V15.0224H21.9676C22.6667 15.0224 23.3372 14.8528 23.8316 14.551C24.3259 14.2491 24.6037 13.8397 24.6037 13.4129V1.6095C24.6037 1.18262 24.3259 0.773229 23.8316 0.47138C23.3372 0.169531 22.6667 -4.57764e-05 21.9676 -4.57764e-05Z" fill="var(--fill-0, black)"/>
</mask>
<g mask="url(#mask0_2141_98)">
<rect id="Rectangle 3129" x="-2.57508" y="950.227" width="29.1811" height="31.7559" fill="var(--fill-0, white)"/>
</g>
</g>
</svg>
