<svg preserveAspectRatio="none" width="100%" height="100%" overflow="visible" style="display: block;" viewBox="0 0 17 17" fill="none" xmlns="http://www.w3.org/2000/svg">
<g id="Google">
<path id="Fill-1" fill-rule="evenodd" clip-rule="evenodd" d="M3.5595 8.45879C3.5595 7.90664 3.65324 7.37728 3.82053 6.88077L0.892249 4.69303C0.321542 5.8267 0 7.1041 0 8.45879C0 9.81231 0.321146 11.0889 0.891062 12.2218L3.81776 10.0299C3.65205 9.53566 3.5595 9.00824 3.5595 8.45879Z" fill="var(--fill-0, #FBBC05)"/>
<path id="Fill-2" fill-rule="evenodd" clip-rule="evenodd" d="M8.69049 3.47751C9.91654 3.47751 11.0239 3.90254 11.894 4.59805L14.4252 2.12515C12.8828 0.81142 10.9053 0 8.69049 0C5.25201 0 2.29683 1.92384 0.881734 4.73483L3.81002 6.92257C4.48474 4.91875 6.40806 3.47751 8.69049 3.47751Z" fill="var(--fill-0, #EB4335)"/>
<path id="Fill-3" fill-rule="evenodd" clip-rule="evenodd" d="M8.69049 13.521C6.40806 13.521 4.48474 12.0798 3.81002 10.076L0.881734 12.2633C2.29683 15.0747 5.25201 16.9986 8.69049 16.9986C10.8127 16.9986 12.8389 16.2613 14.3596 14.88L11.58 12.7776C10.7957 13.261 9.80817 13.521 8.69049 13.521Z" fill="var(--fill-0, #34A853)"/>
<path id="Fill-4" fill-rule="evenodd" clip-rule="evenodd" d="M17.0011 8.49656C17.0011 7.99425 16.922 7.4533 16.8033 6.95099H8.6956V10.2353H13.3625C13.1292 11.3551 12.494 12.2159 11.5851 12.7762L14.3647 14.8786C15.9621 13.4281 17.0011 11.2674 17.0011 8.49656Z" fill="var(--fill-0, #4285F4)"/>
</g>
</svg>
