<svg preserveAspectRatio="none" width="100%" height="100%" overflow="visible" style="display: block;" viewBox="0 0 34 32" fill="none" xmlns="http://www.w3.org/2000/svg">
<g id="Mask group">
<mask id="mask0_2007_153" style="mask-type:alpha" maskUnits="userSpaceOnUse" x="0" y="0" width="34" height="32">
<path id="Vector" d="M30.2306 0.000240326H3.62767C2.66555 0.000240326 1.74284 0.357967 1.06252 0.994724C0.3822 1.63148 0 2.49511 0 3.39562L0 28.2951C0 29.1956 0.3822 30.0592 1.06252 30.6959C1.74284 31.3327 2.66555 31.6904 3.62767 31.6904H14.0005V20.9165H9.23922V15.8453H14.0005V11.9803C14.0005 7.58396 16.7969 5.15556 21.0798 5.15556C23.1309 5.15556 25.2758 5.49792 25.2758 5.49792V9.81288H22.9125C20.584 9.81288 19.8577 11.1654 19.8577 12.5525V15.8453H25.0559L24.2245 20.9165H19.8577V31.6904H30.2306C31.1927 31.6904 32.1154 31.3327 32.7957 30.6959C33.476 30.0592 33.8582 29.1956 33.8582 28.2951V3.39562C33.8582 2.49511 33.476 1.63148 32.7957 0.994724C32.1154 0.357967 31.1927 0.000240326 30.2306 0.000240326Z" fill="var(--fill-0, black)"/>
</mask>
<g mask="url(#mask0_2007_153)">
<rect id="Rectangle 3129" x="-3.54327" y="6.45881" width="40.1574" height="43.7008" fill="var(--fill-0, white)"/>
</g>
</g>
</svg>
