<svg preserveAspectRatio="none" width="100%" height="100%" overflow="visible" style="display: block;" viewBox="0 0 78 83" fill="none" xmlns="http://www.w3.org/2000/svg">
<g id="Mask group">
<mask id="mask0_2137_23" style="mask-type:alpha" maskUnits="userSpaceOnUse" x="0" y="-1" width="78" height="84">
<path id="Vector" d="M69.1071 -0.000328064H8.29286C6.09346 -0.000328064 3.98414 0.93131 2.42892 2.58963C0.873711 4.24796 1.47666e-06 6.49713 1.47666e-06 8.84236L1.47666e-06 73.6887C1.47666e-06 76.0339 0.873711 78.2831 2.42892 79.9414C3.98414 81.5998 6.09346 82.5314 8.29286 82.5314H32.0052V54.4725H21.1209V41.2655H32.0052V31.1996C32.0052 19.7502 38.3977 13.4258 48.1884 13.4258C52.8773 13.4258 57.7805 14.3175 57.7805 14.3175V25.555H52.378C47.0551 25.555 45.3948 29.0774 45.3948 32.69V41.2655H57.2777L55.3773 54.4725H45.3948V82.5314H69.1071C71.3065 82.5314 73.4159 81.5998 74.9711 79.9414C76.5263 78.2831 77.4 76.0339 77.4 73.6887V8.84236C77.4 6.49713 76.5263 4.24796 74.9711 2.58963C73.4159 0.93131 71.3065 -0.000328064 69.1071 -0.000328064Z" fill="var(--fill-0, black)"/>
</mask>
<g mask="url(#mask0_2137_23)">
<rect id="Rectangle 3129" x="-8.09997" y="-1643.11" width="91.8" height="99.9" fill="var(--fill-0, white)"/>
</g>
</g>
</svg>
