<svg preserveAspectRatio="none" width="100%" height="100%" overflow="visible" style="display: block;" viewBox="0 0 34 7" fill="none" xmlns="http://www.w3.org/2000/svg">
<g id="Mask group">
<mask id="mask0_2138_75" style="mask-type:alpha" maskUnits="userSpaceOnUse" x="0" y="0" width="34" height="7">
<path id="Vector" d="M30.2306 -2.28882e-05H3.62767C2.66555 -2.28882e-05 1.74284 0.0755673 1.06252 0.210119C0.3822 0.34467 0 0.527161 0 0.717445L0 5.97888C0 6.16916 0.3822 6.35165 1.06252 6.4862C1.74284 6.62076 2.66555 6.69635 3.62767 6.69635H14.0005V4.41973H9.23922V3.34816H14.0005V2.53144C14.0005 1.60247 16.7969 1.08933 21.0798 1.08933C23.1309 1.08933 25.2758 1.16168 25.2758 1.16168V2.07346H22.9125C20.584 2.07346 19.8577 2.35925 19.8577 2.65237V3.34816H25.0559L24.2245 4.41973H19.8577V6.69635H30.2306C31.1927 6.69635 32.1154 6.62076 32.7957 6.4862C33.476 6.35165 33.8582 6.16916 33.8582 5.97888V0.717445C33.8582 0.527161 33.476 0.34467 32.7957 0.210119C32.1154 0.0755673 31.1927 -2.28882e-05 30.2306 -2.28882e-05Z" fill="var(--fill-0, black)"/>
</mask>
<g mask="url(#mask0_2138_75)">
<rect id="Rectangle 3129" x="-3.54327" y="1987.33" width="40.1574" height="43.7008" fill="var(--fill-0, white)"/>
</g>
</g>
</svg>
