<svg preserveAspectRatio="none" width="100%" height="100%" overflow="visible" style="display: block;" viewBox="0 0 21 17" fill="none" xmlns="http://www.w3.org/2000/svg">
<g id="Group 1000005586">
<path id="Vector" d="M8.14062 8.39375C8.14062 7.08902 9.19839 6.03125 10.5031 6.03125C11.8079 6.03125 12.8656 7.08902 12.8656 8.39375C12.8656 9.69848 11.8079 10.7562 10.5031 10.7562C9.19839 10.7562 8.14062 9.69848 8.14062 8.39375Z" fill="var(--fill-0, #B5B5B5)"/>
<path id="Vector_2" fill-rule="evenodd" clip-rule="evenodd" d="M0 8.4C0 10.1214 0.446208 10.7011 1.33863 11.8605C3.12056 14.1754 6.10902 16.8 10.5 16.8C14.891 16.8 17.8794 14.1754 19.6614 11.8605C20.5537 10.7011 21 10.1214 21 8.4C21 6.67863 20.5537 6.09896 19.6614 4.93955C17.8794 2.62454 14.891 0 10.5 0C6.10902 0 3.12056 2.62454 1.33863 4.93955C0.446208 6.09896 0 6.67863 0 8.4ZM10.5 4.4625C8.32538 4.4625 6.5625 6.22538 6.5625 8.4C6.5625 10.5747 8.32538 12.3375 10.5 12.3375C12.6747 12.3375 14.4375 10.5747 14.4375 8.4C14.4375 6.22538 12.6747 4.4625 10.5 4.4625Z" fill="var(--fill-0, #B5B5B5)"/>
</g>
</svg>
