<svg preserveAspectRatio="none" width="100%" height="100%" overflow="visible" style="display: block;" viewBox="0 0 34 6" fill="none" xmlns="http://www.w3.org/2000/svg">
<g id="Mask group">
<mask id="mask0_2101_94" style="mask-type:alpha" maskUnits="userSpaceOnUse" x="0" y="0" width="34" height="6">
<path id="Vector" d="M30.2306 0H3.62767C2.66555 0 1.74284 0.0637804 1.06252 0.17731C0.3822 0.29084 0 0.444819 0 0.605375L0 5.04479C0 5.20534 0.3822 5.35932 1.06252 5.47285C1.74284 5.58638 2.66555 5.65016 3.62767 5.65016H14.0005V3.72923H9.23922V2.82508H14.0005V2.13596C14.0005 1.35213 16.7969 0.91916 21.0798 0.91916C23.1309 0.91916 25.2758 0.980202 25.2758 0.980202V1.74953H22.9125C20.584 1.74953 19.8577 1.99067 19.8577 2.23799V2.82508H25.0559L24.2245 3.72923H19.8577V5.65016H30.2306C31.1927 5.65016 32.1154 5.58638 32.7957 5.47285C33.476 5.35932 33.8582 5.20534 33.8582 5.04479V0.605375C33.8582 0.444819 33.476 0.29084 32.7957 0.17731C32.1154 0.0637804 31.1927 0 30.2306 0Z" fill="var(--fill-0, black)"/>
</mask>
<g mask="url(#mask0_2101_94)">
<rect id="Rectangle 3129" x="-3.54327" y="1929.2" width="40.1574" height="43.7008" fill="var(--fill-0, white)"/>
</g>
</g>
</svg>
