<svg preserveAspectRatio="none" width="100%" height="100%" overflow="visible" style="display: block;" viewBox="0 0 42 33" fill="none" xmlns="http://www.w3.org/2000/svg">
<g id="Group 1000005586">
<path id="Vector" d="M15.9906 16.4876C15.9906 13.9248 18.0684 11.847 20.6312 11.847C23.1941 11.847 25.2718 13.9248 25.2718 16.4876C25.2718 19.0505 23.1941 21.1283 20.6312 21.1283C18.0684 21.1283 15.9906 19.0505 15.9906 16.4876Z" fill="var(--fill-0, #B5B5B5)"/>
<path id="Vector_2" fill-rule="evenodd" clip-rule="evenodd" d="M0 16.5C0 19.8812 0.87648 21.0199 2.62946 23.2973C6.12967 27.8445 11.9999 33 20.625 33C29.2502 33 35.1202 27.8445 38.6205 23.2973C40.3734 21.0199 41.25 19.8812 41.25 16.5C41.25 13.1187 40.3734 11.98 38.6205 9.70263C35.1202 5.15529 29.2502 -5.06788e-05 20.625 -5.06788e-05C11.9999 -5.06788e-05 6.12967 5.15529 2.62946 9.70263C0.87648 11.98 0 13.1187 0 16.5ZM20.625 8.76558C16.3534 8.76558 12.8906 12.2284 12.8906 16.5C12.8906 20.7716 16.3534 24.2343 20.625 24.2343C24.8966 24.2343 28.3594 20.7716 28.3594 16.5C28.3594 12.2284 24.8966 8.76558 20.625 8.76558Z" fill="var(--fill-0, #B5B5B5)"/>
</g>
</svg>
