<svg preserveAspectRatio="none" width="100%" height="100%" overflow="visible" style="display: block;" viewBox="0 0 795 246" fill="none" xmlns="http://www.w3.org/2000/svg">
<g id="Group">
<path id="Vector" d="M276.644 121.686C276.644 119.458 276.02 117.358 274.917 115.943L266.806 105.488L266.814 29.5742C266.815 13.8454 258.715 1.04656 248.758 1.04759L150.627 1.05772C140.671 1.05874 132.568 13.8592 132.566 29.588L132.559 96.4871L135.272 99.9717L135.279 29.5877C135.28 16.2173 142.163 5.34462 150.627 5.34374L248.758 5.33361C257.213 5.33274 264.102 16.204 264.101 29.5744L264.093 107.531L273.207 119.258C273.669 119.859 273.931 120.743 273.931 121.686C273.931 122.644 273.669 123.529 273.207 124.13L271.009 126.959L264.09 135.861L264.09 141.388L266.297 138.531L266.297 138.546L274.916 127.444C276.02 126.029 276.644 123.929 276.644 121.686Z" fill="var(--fill-0, #3FC195)"/>
<path id="Vector_2" d="M137.51 120.228L131.506 112.853L131.505 130.493L137.509 123.116C138.106 122.383 138.106 120.959 137.51 120.228Z" fill="var(--fill-0, #94C83E)"/>
<path id="Vector_3" d="M270.063 120.228L264.059 112.853L264.058 130.493L270.062 123.116C270.659 122.383 270.66 120.959 270.063 120.228Z" fill="var(--fill-0, #3FC195)"/>
<path id="Vector_4" d="M408.233 121.55C408.233 123.778 407.608 125.878 406.505 127.294L398.392 137.751L398.385 213.664C398.383 229.393 390.28 242.193 380.324 242.194L282.193 242.205C272.236 242.206 264.135 229.407 264.137 213.678L264.144 146.779L266.857 143.294L266.85 213.678C266.849 227.048 273.73 237.919 282.193 237.919L380.324 237.908C388.779 237.908 395.671 227.035 395.672 213.664L395.68 135.708L404.796 123.979C405.258 123.378 405.52 122.494 405.52 121.551C405.52 120.593 405.258 119.708 404.797 119.107L402.599 116.278L395.682 107.378L395.683 101.851L397.89 104.708L397.89 104.693L406.506 115.792C407.609 117.206 408.233 119.307 408.233 121.55Z" fill="var(--fill-0, #FF00D8)"/>
<path id="Vector_5" d="M540.688 121.686C540.688 119.458 540.064 117.359 538.961 115.943L530.851 105.488L530.858 29.5744C530.86 13.8456 522.759 1.04676 512.802 1.04779L414.671 1.05792C404.715 1.05895 396.612 13.8594 396.61 29.5882L396.604 96.4873L399.316 99.9719L399.323 29.5879C399.324 16.2175 406.207 5.34482 414.671 5.34395L512.802 5.33382C521.257 5.33294 528.146 16.2042 528.145 29.5747L528.137 107.531L537.252 119.258C537.713 119.859 537.975 120.743 537.975 121.686C537.975 122.644 537.713 123.529 537.251 124.13L535.053 126.959L528.135 135.861L528.134 141.389L530.341 138.531L530.341 138.546L538.96 127.444C540.064 126.029 540.688 123.929 540.688 121.686Z" fill="var(--fill-0, #6705C4)"/>
<path id="Vector_6" d="M401.553 120.228L395.55 112.853L395.548 130.493L401.553 123.116C402.149 122.383 402.149 120.959 401.553 120.228Z" fill="var(--fill-0, #FF00D8)"/>
<path id="Vector_7" d="M534.108 120.228L528.104 112.853L528.103 130.493L534.107 123.116C534.703 122.383 534.704 120.959 534.108 120.228Z" fill="var(--fill-0, #6705C4)"/>
<path id="Vector_8" d="M672.278 121.55C672.277 123.778 671.653 125.878 670.55 127.294L662.437 137.751L662.429 213.664C662.428 229.393 654.324 242.193 644.368 242.194L546.237 242.205C536.281 242.206 528.18 229.407 528.181 213.678L528.188 146.779L530.901 143.294L530.894 213.678C530.893 227.048 537.774 237.919 546.237 237.919L644.369 237.908C652.824 237.908 659.715 227.035 659.716 213.664L659.724 135.708L668.841 123.979C669.302 123.378 669.564 122.494 669.564 121.551C669.565 120.593 669.303 119.708 668.841 119.107L666.644 116.278L659.727 107.378L659.727 101.851L661.934 104.708L661.934 104.693L670.551 115.792C671.654 117.206 672.278 119.307 672.278 121.55Z" fill="var(--fill-0, #FF451C)"/>
<path id="Vector_9" d="M665.597 120.228L659.594 112.853L659.592 130.493L665.597 123.116C666.194 122.383 666.194 120.959 665.597 120.228Z" fill="var(--fill-0, #FF451C)"/>
<path id="Vector_10" d="M142.463 115.778L133.845 104.678L133.845 104.693L131.638 101.836L131.638 107.364L138.555 116.264L140.753 119.093C141.214 119.694 141.476 120.579 141.476 121.537C141.476 122.48 141.214 123.366 140.752 123.965L131.635 135.695L131.627 213.655C131.626 227.026 124.734 237.899 116.278 237.9L18.1404 237.91C9.67638 237.911 2.79507 227.039 2.79641 213.668L2.80344 143.279L2.79076 143.294L2.76819 30.8342C2.76671 24.5084 4.32466 18.5613 7.15562 14.0861C9.98657 9.61103 13.7503 7.14541 17.7546 7.14333L122.783 7.07252C123.252 9.07371 124.47 10.5007 125.901 10.5005C127.736 10.5003 129.224 8.15009 129.224 5.25089C129.225 2.35168 127.737 0.00175829 125.902 0.00194564C124.645 0.00207399 123.55 1.10545 122.986 2.73287L17.755 2.8037C13.0174 2.80752 8.56273 5.72554 5.21398 11.0202C1.86312 16.3132 0.0197844 23.352 0.0211497 30.8362L0.0451135 150.511L0.0894887 150.511L0.0831776 213.668C0.0816058 229.398 8.18304 242.197 18.14 242.196L116.278 242.186C126.235 242.185 134.339 229.384 134.341 213.654L134.348 137.738L142.461 127.28C143.565 125.866 144.189 123.765 144.189 121.536C144.19 119.293 143.565 117.192 142.463 115.778Z" fill="var(--fill-0, #94C83E)"/>
<path id="Vector_11" d="M794.909 94.5058L794.907 94.5058L794.913 29.5746C794.915 13.8451 786.813 1.04563 776.856 1.04666L678.717 1.05678C668.76 1.05781 660.656 13.8589 660.654 29.5885L660.647 96.4909L663.36 99.9757L663.367 29.5882C663.369 16.2171 670.252 5.34389 678.716 5.34302L776.856 5.33289C785.311 5.33202 792.201 16.2038 792.2 29.5749L792.194 94.5061L792.162 94.5061L792.194 214.182C792.196 220.508 790.638 226.455 787.807 230.93C784.976 235.405 781.212 237.871 777.208 237.875L673.122 237.944C672.573 236.241 671.453 235.075 670.161 235.075C668.326 235.075 666.838 237.425 666.837 240.325C666.837 243.224 668.325 245.574 670.16 245.574C671.557 245.573 672.752 244.211 673.243 242.282L777.208 242.213C781.946 242.209 786.401 239.291 789.75 233.996C793.1 228.701 794.943 221.663 794.942 214.177L794.909 94.5058Z" fill="var(--fill-0, #00FFA3)"/>
</g>
</svg>
