<svg preserveAspectRatio="none" width="100%" height="100%" overflow="visible" style="display: block;" viewBox="0 0 41 41" fill="none" xmlns="http://www.w3.org/2000/svg">
<path id="Vector" d="M20.5 0C9.2045 0 0 9.2045 0 20.5C0 31.7955 9.2045 41 20.5 41C31.7955 41 41 31.7955 41 20.5C41 9.2045 31.7955 0 20.5 0ZM30.299 15.785L18.6755 27.4085C18.3885 27.6955 17.999 27.8595 17.589 27.8595C17.179 27.8595 16.7895 27.6955 16.5025 27.4085L10.701 21.607C10.1065 21.0125 10.1065 20.0285 10.701 19.434C11.2955 18.8395 12.2795 18.8395 12.874 19.434L17.589 24.149L28.126 13.612C28.7205 13.0175 29.7045 13.0175 30.299 13.612C30.8935 14.2065 30.8935 15.17 30.299 15.785Z" fill="var(--fill-0, #FF451C)"/>
</svg>
