<svg preserveAspectRatio="none" width="100%" height="100%" overflow="visible" style="display: block;" viewBox="0 0 78 26" fill="none" xmlns="http://www.w3.org/2000/svg">
<g id="Mask group">
<mask id="mask0_2138_57" style="mask-type:alpha" maskUnits="userSpaceOnUse" x="0" y="0" width="78" height="26">
<path id="Vector" d="M69.1071 -2.28882e-05H8.29286C6.09345 -2.28882e-05 3.98413 0.286517 2.42892 0.79656C0.873709 1.3066 -1.53817e-07 1.99837 -1.53817e-07 2.71968L-1.53817e-07 22.6642C-1.53817e-07 23.3855 0.873709 24.0773 2.42892 24.5873C3.98413 25.0974 6.09345 25.3839 8.29286 25.3839H32.0052V16.7539H21.1209V12.6919H32.0052V9.596C32.0052 6.07455 38.3977 4.1294 48.1884 4.1294C52.8773 4.1294 57.7805 4.40363 57.7805 4.40363V7.85993H52.378C47.0551 7.85993 45.3948 8.94327 45.3948 10.0544V12.6919H57.2777L55.3773 16.7539H45.3948V25.3839H69.1071C71.3065 25.3839 73.4159 25.0974 74.9711 24.5873C76.5263 24.0773 77.4 23.3855 77.4 22.6642V2.71968C77.4 1.99837 76.5263 1.3066 74.9711 0.79656C73.4159 0.286517 71.3065 -2.28882e-05 69.1071 -2.28882e-05Z" fill="var(--fill-0, black)"/>
</mask>
<g mask="url(#mask0_2138_57)">
<rect id="Rectangle 3129" x="-8.09997" y="1896.97" width="91.8" height="99.9" fill="var(--fill-0, white)"/>
</g>
</g>
</svg>
