<svg preserveAspectRatio="none" width="100%" height="100%" overflow="visible" style="display: block;" viewBox="0 0 34 35" fill="none" xmlns="http://www.w3.org/2000/svg">
<g id="Mask group">
<mask id="mask0_2007_204" style="mask-type:alpha" maskUnits="userSpaceOnUse" x="0" y="0" width="34" height="35">
<path id="Vector" d="M30.2305 -8.7738e-05H3.62764C2.66552 -8.7738e-05 1.74281 0.392259 1.06249 1.09064C0.382169 1.78902 -3.07579e-05 2.73623 -3.07579e-05 3.72389L-3.07579e-05 31.033C-3.07579e-05 32.0207 0.382169 32.9679 1.06249 33.6663C1.74281 34.3647 2.66552 34.757 3.62764 34.757H14.0005V22.9404H9.23919V17.3785H14.0005V13.1393C14.0005 8.31756 16.7968 5.65415 21.0797 5.65415C23.1309 5.65415 25.2758 6.02965 25.2758 6.02965V10.7622H22.9125C20.584 10.7622 19.8577 12.2456 19.8577 13.767V17.3785H25.0558L24.2245 22.9404H19.8577V34.757H30.2305C31.1927 34.757 32.1154 34.3647 32.7957 33.6663C33.476 32.9679 33.8582 32.0207 33.8582 31.033V3.72389C33.8582 2.73623 33.476 1.78902 32.7957 1.09064C32.1154 0.392259 31.1927 -8.7738e-05 30.2305 -8.7738e-05Z" fill="var(--fill-0, black)"/>
</mask>
<g mask="url(#mask0_2007_204)">
<rect id="Rectangle 3129" x="-3.54326" y="-497.155" width="40.1574" height="43.7008" fill="var(--fill-0, white)"/>
</g>
</g>
</svg>
