<svg preserveAspectRatio="none" width="100%" height="100%" overflow="visible" style="display: block;" viewBox="0 0 1322 246" fill="none" xmlns="http://www.w3.org/2000/svg">
<g id="Group">
<path id="Vector" d="M460.035 121.786C460.035 119.556 458.997 117.454 457.163 116.037L443.674 105.572V29.5909C443.674 13.8481 430.201 1.0371 413.644 1.0371H250.461C233.905 1.0371 220.432 13.8481 220.432 29.5909V96.5494L224.943 100.037V29.5909C224.943 16.2086 236.387 5.32694 250.461 5.32694H413.644C427.704 5.32694 439.162 16.2086 439.162 29.5909V107.616L454.32 119.355C455.088 119.956 455.524 120.842 455.524 121.786C455.524 122.744 455.088 123.63 454.32 124.231L450.666 127.063L439.162 135.971V141.504L442.832 138.644V138.659L457.163 127.549C458.999 126.132 460.035 124.031 460.035 121.786Z" fill="var(--fill-0, #3FC195)"/>
<path id="Vector_2" d="M228.646 120.314L218.664 112.932V130.586L228.646 123.204C229.637 122.471 229.637 121.046 228.646 120.314Z" fill="var(--fill-0, #94C83E)"/>
<path id="Vector_3" d="M449.092 120.314L439.109 112.932V130.586L449.092 123.204C450.084 122.471 450.084 121.046 449.092 120.314Z" fill="var(--fill-0, #3FC195)"/>
<path id="Vector_4" d="M678.861 121.639C678.861 123.869 677.823 125.971 675.989 127.387L662.5 137.853V213.834C662.5 229.576 649.026 242.388 632.47 242.388H469.287C452.73 242.388 439.257 229.576 439.257 213.834V146.875L443.769 143.387V213.834C443.769 227.216 455.213 238.098 469.287 238.098H632.47C646.53 238.098 657.988 227.216 657.988 213.834V135.808L673.146 124.07C673.914 123.468 674.349 122.583 674.349 121.639C674.349 120.68 673.914 119.795 673.146 119.193L669.492 116.362L657.988 107.453V101.92L661.658 104.78V104.765L675.989 115.876C677.823 117.291 678.861 119.394 678.861 121.639Z" fill="var(--fill-0, #FF00D8)"/>
<path id="Vector_5" d="M899.159 121.786C899.159 119.556 898.121 117.454 896.287 116.037L882.798 105.572V29.5909C882.798 13.8481 869.324 1.0371 852.768 1.0371H689.585C673.028 1.0371 659.555 13.8481 659.555 29.5909V96.5494L664.067 100.037V29.5909C664.067 16.2086 675.511 5.32694 689.585 5.32694H852.768C866.828 5.32694 878.286 16.2086 878.286 29.5909V107.616L893.444 119.355C894.212 119.956 894.647 120.842 894.647 121.786C894.647 122.744 894.212 123.63 893.444 124.231L889.79 127.063L878.286 135.971V141.504L881.956 138.644V138.659L896.287 127.549C898.122 126.132 899.159 124.031 899.159 121.786Z" fill="var(--fill-0, #6705C4)"/>
<path id="Vector_6" d="M667.77 120.314L657.787 112.932V130.586L667.77 123.204C668.761 122.471 668.761 121.046 667.77 120.314Z" fill="var(--fill-0, #FF00D8)"/>
<path id="Vector_7" d="M888.217 120.314L878.235 112.932V130.586L888.217 123.204C889.208 122.471 889.208 121.046 888.217 120.314Z" fill="var(--fill-0, #6705C4)"/>
<path id="Vector_8" d="M1117.98 121.639C1117.98 123.869 1116.95 125.971 1115.11 127.387L1101.62 137.853V213.834C1101.62 229.576 1088.15 242.388 1071.59 242.388H908.41C891.854 242.388 878.381 229.576 878.381 213.834V146.875L882.892 143.387V213.834C882.892 227.216 894.336 238.098 908.41 238.098H1071.59C1085.65 238.098 1097.11 227.216 1097.11 213.834V135.808L1112.27 124.07C1113.04 123.468 1113.47 122.583 1113.47 121.639C1113.47 120.68 1113.04 119.795 1112.27 119.193L1108.62 116.362L1097.11 107.453V101.92L1100.78 104.78V104.765L1115.11 115.876C1116.95 117.291 1117.98 119.394 1117.98 121.639Z" fill="var(--fill-0, #FF451C)"/>
<path id="Vector_9" d="M1106.89 120.314L1096.91 112.932V130.586L1106.89 123.204C1107.89 122.471 1107.89 121.046 1106.89 120.314Z" fill="var(--fill-0, #FF451C)"/>
<path id="Vector_10" d="M236.865 115.876L222.534 104.765V104.78L218.864 101.92V107.453L230.368 116.362L234.022 119.193C234.79 119.795 235.226 120.68 235.226 121.639C235.226 122.583 234.79 123.47 234.022 124.069L218.864 135.808V213.834C218.864 227.216 207.406 238.098 193.346 238.098H30.1631C16.0891 238.098 4.64507 227.216 4.64507 213.834V143.385L4.62398 143.4L4.56777 30.8456C4.56425 24.5145 7.15382 18.5625 11.8604 14.0839C16.5669 9.60527 22.8248 7.13795 29.4832 7.13628L204.125 7.07614C204.905 9.07907 206.93 10.5073 209.309 10.5073C212.361 10.5073 214.834 8.15528 214.834 5.25363C214.834 2.35198 212.361 -8.35054e-05 209.309 -8.35054e-05C207.218 -8.35054e-05 205.398 1.10412 204.46 2.73285L29.4832 2.79299C21.6055 2.79633 14.1987 5.71636 8.63132 11.0152C3.06041 16.3123 -0.00351065 23.3568 3.01872e-06 30.8473L0.0597353 150.624H0.133522V213.834C0.133522 229.576 13.6067 242.387 30.1631 242.387H193.346C209.903 242.387 223.376 229.576 223.376 213.834V137.853L236.865 127.387C238.699 125.972 239.737 123.869 239.737 121.639C239.737 119.394 238.699 117.291 236.865 115.876Z" fill="var(--fill-0, #94C83E)"/>
<path id="Vector_11" d="M1321.93 94.5766H1321.92V29.5909C1321.92 13.8481 1308.45 1.0371 1291.89 1.0371H1128.71C1112.15 1.0371 1098.68 13.8481 1098.68 29.5909V96.5494L1103.19 100.037V29.5909C1103.19 16.2086 1114.64 5.32694 1128.71 5.32694H1291.89C1305.95 5.32694 1317.41 16.2086 1317.41 29.5909V94.5766H1317.36L1317.43 214.353C1317.44 220.684 1314.85 226.636 1310.14 231.115C1305.43 235.593 1299.18 238.061 1292.52 238.064L1119.45 238.122C1118.53 236.418 1116.67 235.251 1114.52 235.251C1111.47 235.251 1109 237.603 1109 240.504C1109 243.406 1111.47 245.758 1114.52 245.758C1116.84 245.758 1118.83 244.395 1119.65 242.464L1292.52 242.405C1300.4 242.402 1307.8 239.482 1313.37 234.183C1318.94 228.884 1322 221.84 1322 214.348L1321.93 94.5766Z" fill="var(--fill-0, #00FFA3)"/>
</g>
</svg>
