<svg preserveAspectRatio="none" width="100%" height="100%" overflow="visible" style="display: block;" viewBox="0 0 78 81" fill="none" xmlns="http://www.w3.org/2000/svg">
<g id="Mask group">
<mask id="mask0_2002_44" style="mask-type:alpha" maskUnits="userSpaceOnUse" x="0" y="0" width="78" height="81">
<path id="Vector" d="M69.1071 0.000350952H8.29286C6.09345 0.000350952 3.98413 0.908196 2.42892 2.52417C0.873709 4.14014 -1.53817e-07 6.33188 -1.53817e-07 8.61721L-1.53817e-07 71.8075C-1.53817e-07 74.0928 0.873709 76.2846 2.42892 77.9005C3.98413 79.5165 6.09345 80.4244 8.29286 80.4244H32.0052V53.082H21.1209V40.2124H32.0052V30.4035C32.0052 19.2465 38.3977 13.0836 48.1884 13.0836C52.8773 13.0836 57.7805 13.9525 57.7805 13.9525V24.9031H52.378C47.0551 24.9031 45.3948 28.3355 45.3948 31.8558V40.2124H57.2777L55.3773 53.082H45.3948V80.4244H69.1071C71.3065 80.4244 73.4159 79.5165 74.9711 77.9005C76.5263 76.2846 77.4 74.0928 77.4 71.8075V8.61721C77.4 6.33188 76.5263 4.14014 74.9711 2.52417C73.4159 0.908196 71.3065 0.000350952 69.1071 0.000350952Z" fill="var(--fill-0, black)"/>
</mask>
<g mask="url(#mask0_2002_44)">
<rect id="Rectangle 3129" x="-8.09997" y="-870.035" width="91.8" height="99.9" fill="var(--fill-0, white)"/>
</g>
</g>
</svg>
