<svg preserveAspectRatio="none" width="100%" height="100%" overflow="visible" style="display: block;" viewBox="0 0 25 17" fill="none" xmlns="http://www.w3.org/2000/svg">
<g id="Mask group">
<mask id="mask0_2141_102" style="mask-type:alpha" maskUnits="userSpaceOnUse" x="-1" y="0" width="26" height="17">
<path id="Vector" d="M21.9674 1.45208e-05H2.63598C1.93684 1.45208e-05 1.26634 0.186003 0.771974 0.517064C0.277608 0.848125 -0.000123646 1.29714 -0.000123646 1.76533L-0.000123646 14.711C-0.000123646 15.1792 0.277608 15.6282 0.771974 15.9593C1.26634 16.2903 1.93684 16.4763 2.63598 16.4763H10.1736V10.8747H6.71371V8.23816H10.1736V6.22864C10.1736 3.94292 12.2056 2.68035 15.3179 2.68035C16.8084 2.68035 18.367 2.85836 18.367 2.85836V5.10178H16.6496C14.9576 5.10178 14.4298 5.80496 14.4298 6.52617V8.23816H18.2071L17.603 10.8747H14.4298V16.4763H21.9674C22.6666 16.4763 23.3371 16.2903 23.8314 15.9593C24.3258 15.6282 24.6035 15.1792 24.6035 14.711V1.76533C24.6035 1.29714 24.3258 0.848125 23.8314 0.517064C23.3371 0.186003 22.6666 1.45208e-05 21.9674 1.45208e-05Z" fill="var(--fill-0, black)"/>
</mask>
<g mask="url(#mask0_2141_102)">
<rect id="Rectangle 3129" x="-2.57492" y="711.539" width="29.1811" height="31.7559" fill="var(--fill-0, white)"/>
</g>
</g>
</svg>
