<svg preserveAspectRatio="none" width="100%" height="100%" overflow="visible" style="display: block;" viewBox="0 0 78 76" fill="none" xmlns="http://www.w3.org/2000/svg">
<g id="Mask group">
<mask id="mask0_2137_13" style="mask-type:alpha" maskUnits="userSpaceOnUse" x="0" y="0" width="78" height="76">
<path id="Vector" d="M69.1071 0.00038147H8.29286C6.09345 0.00038147 3.98413 0.849813 2.42892 2.36181C0.873709 3.87381 -1.53817e-07 5.92452 -1.53817e-07 8.06281L-1.53817e-07 67.1873C-1.53817e-07 69.3255 0.873709 71.3763 2.42892 72.8883C3.98413 74.4002 6.09345 75.2497 8.29286 75.2497H32.0052V49.6666H21.1209V37.625H32.0052V28.4473C32.0052 18.0081 38.3977 12.2418 48.1884 12.2418C52.8773 12.2418 57.7805 13.0548 57.7805 13.0548V23.3008H52.378C47.0551 23.3008 45.3948 26.5123 45.3948 29.8062V37.625H57.2777L55.3773 49.6666H45.3948V75.2497H69.1071C71.3065 75.2497 73.4159 74.4002 74.9711 72.8883C76.5263 71.3763 77.4 69.3255 77.4 67.1873V8.06281C77.4 5.92452 76.5263 3.87381 74.9711 2.36181C73.4159 0.849813 71.3065 0.00038147 69.1071 0.00038147Z" fill="var(--fill-0, black)"/>
</mask>
<g mask="url(#mask0_2137_13)">
<rect id="Rectangle 3129" x="-8.09997" y="-447.245" width="91.8" height="99.9" fill="var(--fill-0, white)"/>
</g>
</g>
</svg>
