<svg preserveAspectRatio="none" width="100%" height="100%" overflow="visible" style="display: block;" viewBox="0 0 21 21" fill="none" xmlns="http://www.w3.org/2000/svg">
<path id="Vector" d="M10.5 0C4.7145 0 0 4.7145 0 10.5C0 16.2855 4.7145 21 10.5 21C16.2855 21 21 16.2855 21 10.5C21 4.7145 16.2855 0 10.5 0ZM15.519 8.085L9.5655 14.0385C9.4185 14.1855 9.219 14.2695 9.009 14.2695C8.799 14.2695 8.5995 14.1855 8.4525 14.0385L5.481 11.067C5.1765 10.7625 5.1765 10.2585 5.481 9.954C5.7855 9.6495 6.2895 9.6495 6.594 9.954L9.009 12.369L14.406 6.972C14.7105 6.6675 15.2145 6.6675 15.519 6.972C15.8235 7.2765 15.8235 7.77 15.519 8.085Z" fill="var(--fill-0, #FF451C)"/>
</svg>
