<svg preserveAspectRatio="none" width="100%" height="100%" overflow="visible" style="display: block;" viewBox="0 0 34 19" fill="none" xmlns="http://www.w3.org/2000/svg">
<g id="Mask group">
<mask id="mask0_2137_33" style="mask-type:alpha" maskUnits="userSpaceOnUse" x="0" y="0" width="34" height="19">
<path id="Vector" d="M30.2305 9.15527e-05H3.62764C2.66552 9.15527e-05 1.74281 0.214174 1.06249 0.595243C0.382169 0.976312 -3.07579e-05 1.49315 -3.07579e-05 2.03206L-3.07579e-05 16.9332C-3.07579e-05 17.4721 0.382169 17.989 1.06249 18.37C1.74281 18.7511 2.66552 18.9652 3.62764 18.9652H14.0005V12.5175H9.23919V9.48263H14.0005V7.16957C14.0005 4.53859 16.7968 3.0853 21.0797 3.0853C23.1309 3.0853 25.2758 3.29019 25.2758 3.29019V5.87249H22.9125C20.584 5.87249 19.8577 6.6819 19.8577 7.51204V9.48263H25.0558L24.2245 12.5175H19.8577V18.9652H30.2305C31.1927 18.9652 32.1154 18.7511 32.7957 18.37C33.476 17.989 33.8582 17.4721 33.8582 16.9332V2.03206C33.8582 1.49315 33.476 0.976312 32.7957 0.595243C32.1154 0.214174 31.1927 9.15527e-05 30.2305 9.15527e-05Z" fill="var(--fill-0, black)"/>
</mask>
<g mask="url(#mask0_2137_33)">
<rect id="Rectangle 3129" x="-3.54326" y="1733.46" width="40.1574" height="43.7008" fill="var(--fill-0, white)"/>
</g>
</g>
</svg>
