<svg preserveAspectRatio="none" width="100%" height="100%" overflow="visible" style="display: block;" viewBox="0 0 78 28" fill="none" xmlns="http://www.w3.org/2000/svg">
<g id="Mask group">
<mask id="mask0_2138_61" style="mask-type:alpha" maskUnits="userSpaceOnUse" x="0" y="0" width="78" height="28">
<path id="Vector" d="M69.1071 4.57764e-05H8.29286C6.09346 4.57764e-05 3.98414 0.314316 2.42892 0.873721C0.873711 1.43313 1.47666e-06 2.19184 1.47666e-06 2.98296L1.47666e-06 24.8576C1.47666e-06 25.6488 0.873711 26.4075 2.42892 26.9669C3.98414 27.5263 6.09346 27.8406 8.29286 27.8406H32.0052V18.3754H21.1209V13.9203H32.0052V10.5248C32.0052 6.6625 38.3977 4.5291 48.1884 4.5291C52.8773 4.5291 57.7805 4.82988 57.7805 4.82988V8.62066H52.378C47.0551 8.62066 45.3948 9.80885 45.3948 11.0275V13.9203H57.2777L55.3773 18.3754H45.3948V27.8406H69.1071C71.3065 27.8406 73.4159 27.5263 74.9711 26.9669C76.5263 26.4075 77.4 25.6488 77.4 24.8576V2.98296C77.4 2.19184 76.5263 1.43313 74.9711 0.873721C73.4159 0.314316 71.3065 4.57764e-05 69.1071 4.57764e-05Z" fill="var(--fill-0, black)"/>
</mask>
<g mask="url(#mask0_2138_61)">
<rect id="Rectangle 3129" x="-8.09997" y="1493.85" width="91.8" height="99.9" fill="var(--fill-0, white)"/>
</g>
</g>
</svg>
