<svg preserveAspectRatio="none" width="100%" height="100%" overflow="visible" style="display: block;" viewBox="0 0 78 45" fill="none" xmlns="http://www.w3.org/2000/svg">
<g id="Mask group">
<mask id="mask0_2101_72" style="mask-type:alpha" maskUnits="userSpaceOnUse" x="0" y="0" width="78" height="45">
<path id="Vector" d="M69.1071 0H8.29286C6.09346 0 3.98414 0.505043 2.42892 1.40403C0.873711 2.30301 1.47666e-06 3.52229 1.47666e-06 4.79364L1.47666e-06 39.947C1.47666e-06 41.2184 0.873711 42.4377 2.42892 43.3366C3.98414 44.2356 6.09346 44.7407 8.29286 44.7407H32.0052V29.5298H21.1209V22.3703H32.0052V16.9136C32.0052 10.7068 38.3977 7.27835 48.1884 7.27835C52.8773 7.27835 57.7805 7.76171 57.7805 7.76171V13.8536H52.378C47.0551 13.8536 45.3948 15.7631 45.3948 17.7215V22.3703H57.2777L55.3773 29.5298H45.3948V44.7407H69.1071C71.3065 44.7407 73.4159 44.2356 74.9711 43.3366C76.5263 42.4377 77.4 41.2184 77.4 39.947V4.79364C77.4 3.52229 76.5263 2.30301 74.9711 1.40403C73.4159 0.505043 71.3065 0 69.1071 0Z" fill="var(--fill-0, black)"/>
</mask>
<g mask="url(#mask0_2101_72)">
<rect id="Rectangle 3129" x="-8.09997" y="929.876" width="91.8" height="99.9" fill="var(--fill-0, white)"/>
</g>
</g>
</svg>
