<svg preserveAspectRatio="none" width="100%" height="100%" overflow="visible" style="display: block;" viewBox="0 0 78 89" fill="none" xmlns="http://www.w3.org/2000/svg">
<g id="Mask group">
<mask id="mask0_2002_9" style="mask-type:alpha" maskUnits="userSpaceOnUse" x="0" y="-1" width="78" height="90">
<path id="Vector" d="M69.1071 -0.000335693H8.29286C6.09346 -0.000335693 3.98414 0.995369 2.42892 2.76773C0.873711 4.5401 1.47666e-06 6.94394 1.47666e-06 9.45044L1.47666e-06 78.7561C1.47666e-06 81.2626 0.873711 83.6665 2.42892 85.4388C3.98414 87.2112 6.09346 88.2069 8.29286 88.2069H32.0052V58.2184H21.1209V44.1033H32.0052V33.3452C32.0052 21.1084 38.3977 14.3491 48.1884 14.3491C52.8773 14.3491 57.7805 15.302 57.7805 15.302V27.3124H52.378C47.0551 27.3124 45.3948 31.077 45.3948 34.938V44.1033H57.2777L55.3773 58.2184H45.3948V88.2069H69.1071C71.3065 88.2069 73.4159 87.2112 74.9711 85.4388C76.5263 83.6665 77.4 81.2626 77.4 78.7561V9.45044C77.4 6.94394 76.5263 4.5401 74.9711 2.76773C73.4159 0.995369 71.3065 -0.000335693 69.1071 -0.000335693Z" fill="var(--fill-0, black)"/>
</mask>
<g mask="url(#mask0_2002_9)">
<rect id="Rectangle 3129" x="-8.09997" y="-2148.16" width="91.8" height="99.9" fill="var(--fill-0, white)"/>
</g>
</g>
</svg>
