<svg preserveAspectRatio="none" width="100%" height="100%" overflow="visible" style="display: block;" viewBox="0 0 34 7" fill="none" xmlns="http://www.w3.org/2000/svg">
<g id="Mask group">
<mask id="mask0_2101_88" style="mask-type:alpha" maskUnits="userSpaceOnUse" x="0" y="0" width="34" height="7">
<path id="Vector" d="M30.2305 1.52588e-05H3.62764C2.66552 1.52588e-05 1.74281 0.0699681 1.06249 0.194485C0.382169 0.319002 -3.07579e-05 0.487883 -3.07579e-05 0.663976L-3.07579e-05 5.53303C-3.07579e-05 5.70912 0.382169 5.878 1.06249 6.00252C1.74281 6.12703 2.66552 6.19699 3.62764 6.19699H14.0005V4.09015H9.23919V3.0985H14.0005V2.34269C14.0005 1.483 16.7968 1.00813 21.0797 1.00813C23.1309 1.00813 25.2758 1.07508 25.2758 1.07508V1.91886H22.9125C20.584 1.91886 19.8577 2.18334 19.8577 2.4546V3.0985H25.0558L24.2245 4.09015H19.8577V6.19699H30.2305C31.1927 6.19699 32.1154 6.12703 32.7957 6.00252C33.476 5.878 33.8582 5.70912 33.8582 5.53303V0.663976C33.8582 0.487883 33.476 0.319002 32.7957 0.194485C32.1154 0.0699681 31.1927 1.52588e-05 30.2305 1.52588e-05Z" fill="var(--fill-0, black)"/>
</mask>
<g mask="url(#mask0_2101_88)">
<rect id="Rectangle 3129" x="-3.54326" y="1839.56" width="40.1574" height="43.7008" fill="var(--fill-0, white)"/>
</g>
</g>
</svg>
