<svg preserveAspectRatio="none" width="100%" height="100%" overflow="visible" style="display: block;" viewBox="0 0 34 8" fill="none" xmlns="http://www.w3.org/2000/svg">
<g id="Mask group">
<mask id="mask0_2138_79" style="mask-type:alpha" maskUnits="userSpaceOnUse" x="0" y="0" width="34" height="8">
<path id="Vector" d="M30.2305 -1.3113e-05H3.62764C2.66552 -1.3113e-05 1.74281 0.0828925 1.06249 0.230465C0.382169 0.378038 -3.07579e-05 0.57819 -3.07579e-05 0.78689L-3.07579e-05 6.55751C-3.07579e-05 6.76621 0.382169 6.96636 1.06249 7.11393C1.74281 7.26151 2.66552 7.34441 3.62764 7.34441H14.0005V4.84747H9.23919V3.6722H14.0005V2.77644C14.0005 1.75757 16.7968 1.19477 21.0797 1.19477C23.1309 1.19477 25.2758 1.27411 25.2758 1.27411V2.27414H22.9125C20.584 2.27414 19.8577 2.58759 19.8577 2.90907V3.6722H25.0558L24.2245 4.84747H19.8577V7.34441H30.2305C31.1927 7.34441 32.1154 7.26151 32.7957 7.11393C33.476 6.96636 33.8582 6.76621 33.8582 6.55751V0.78689C33.8582 0.57819 33.476 0.378038 32.7957 0.230465C32.1154 0.0828925 31.1927 -1.3113e-05 30.2305 -1.3113e-05Z" fill="var(--fill-0, black)"/>
</mask>
<g mask="url(#mask0_2138_79)">
<rect id="Rectangle 3129" x="-3.54326" y="1881.05" width="40.1574" height="43.7008" fill="var(--fill-0, white)"/>
</g>
</g>
</svg>
