<svg preserveAspectRatio="none" width="100%" height="100%" overflow="visible" style="display: block;" viewBox="0 0 30 30" fill="none" xmlns="http://www.w3.org/2000/svg">
<g id="Google">
<path id="Fill-1" fill-rule="evenodd" clip-rule="evenodd" d="M6.18208 14.6921C6.18208 13.7331 6.34488 12.8137 6.63543 11.9513L1.54964 8.15137C0.558448 10.1204 0 12.3392 0 14.6921C0 17.0431 0.557761 19.2605 1.54758 21.2282L6.63063 17.4209C6.34282 16.5625 6.18208 15.6465 6.18208 14.6921Z" fill="var(--fill-0, #FBBC05)"/>
<path id="Fill-2" fill-rule="evenodd" clip-rule="evenodd" d="M15.0937 6.0401C17.2231 6.0401 19.1464 6.77833 20.6575 7.98635L25.0537 3.69117C22.3748 1.40936 18.9403 0 15.0937 0C9.12178 0 3.98928 3.34152 1.53156 8.22393L6.61735 12.0238C7.7892 8.54338 11.1296 6.0401 15.0937 6.0401Z" fill="var(--fill-0, #EB4335)"/>
<path id="Fill-3" fill-rule="evenodd" clip-rule="evenodd" d="M15.0937 23.4847C11.1296 23.4847 7.7892 20.9814 6.61735 17.501L1.53156 21.3002C3.98928 26.1833 9.12178 29.5248 15.0937 29.5248C18.7796 29.5248 22.2985 28.2443 24.9397 25.8451L20.1121 22.1935C18.75 23.0331 17.0348 23.4847 15.0937 23.4847Z" fill="var(--fill-0, #34A853)"/>
<path id="Fill-4" fill-rule="evenodd" clip-rule="evenodd" d="M29.5271 14.7577C29.5271 13.8852 29.3898 12.9456 29.1837 12.0732H15.1023V17.7777H23.2077C22.8024 19.7226 21.6993 21.2179 20.1208 22.191L24.9483 25.8426C27.7227 23.3232 29.5271 19.5703 29.5271 14.7577Z" fill="var(--fill-0, #4285F4)"/>
</g>
</svg>
