<svg width="41" height="47" viewBox="0 0 41 47" fill="none" xmlns="http://www.w3.org/2000/svg">
<path d="M15.48 8.39551C15.7061 8.68649 15.8791 8.83198 15.9522 9.012C16.4589 10.2659 16.9138 11.5371 17.4458 12.7812C19.2187 16.9314 22.3975 19.7561 26.9009 21.306C28.0979 21.719 29.3069 22.1037 30.4919 22.5254C30.6888 22.5957 30.8324 22.793 31 22.9311C30.8284 23.0839 30.6848 23.301 30.4786 23.3786C28.9079 23.9409 27.2866 24.3983 25.7544 25.0308C21.6141 26.7373 18.8011 29.6187 17.2503 33.5618C16.818 34.6579 16.4071 35.7614 15.9575 36.8514C15.8844 37.0301 15.6676 37.1596 15.5173 37.3125C15.3524 37.1547 15.1183 37.0252 15.0332 36.8366C14.3269 35.1782 13.7736 33.452 12.9371 31.8541C11.0511 28.2526 7.95482 25.8544 3.89295 24.5142C2.75978 24.1443 1.63192 23.7744 0.50141 23.3712C0.307228 23.3022 0.166252 23.1061 0 22.9693C0.171572 22.8176 0.313884 22.5994 0.516047 22.5254C2.28896 21.8769 4.1297 21.3664 5.83611 20.602C9.72507 18.8622 12.3239 16.003 13.7816 12.2436C14.1953 11.1771 14.6009 10.1093 15.0252 9.04775C15.1143 8.8591 15.2672 8.70005 15.48 8.39551Z" fill="url(#paint0_linear_2090_33)"/>
<path d="M25 7.39938C26.8418 6.72453 28.7659 6.22375 30.2191 4.8463C31.6493 3.48903 32.1877 1.71298 33.0014 0C33.8109 1.73317 34.3614 3.53192 35.8241 4.88793C37.2867 6.24394 39.1852 6.71696 41 7.39938C41 7.45235 40.9906 7.50533 40.9852 7.55831C40.8211 7.64958 40.6513 7.73131 40.4765 7.80303C39.7924 8.04395 39.088 8.24326 38.4174 8.5132C36.3732 9.33563 34.9012 10.703 34.0565 12.6355C33.7718 13.2851 33.5411 13.9536 33.2712 14.6095C33.2029 14.7246 33.1185 14.8306 33.0202 14.9249C32.9177 14.8164 32.7747 14.7243 32.722 14.5982C32.4765 14.0091 32.2714 13.4062 32.0231 12.8184C31.1191 10.674 29.5161 9.18426 27.2021 8.37318C26.6394 8.1764 26.074 7.99476 25.5114 7.79168C25.3454 7.73365 25.1862 7.66553 25.0229 7.59111C25.0148 7.52678 25.0081 7.46371 25 7.39938Z" fill="url(#paint1_linear_2090_33)"/>
<path d="M32.9101 46.6402C32.2098 44.906 31.6636 43.1062 30.1887 41.7481C28.7367 40.4077 26.8319 39.9105 25 39.2567L25.0338 39.0787C25.1906 39.008 25.3434 38.9247 25.507 38.8679C26.1045 38.6584 26.7115 38.4678 27.3064 38.2507C29.5695 37.4278 31.1503 35.9616 32.0489 33.8522C32.3058 33.2488 32.5153 32.6279 32.7641 32.022C32.836 31.9069 32.9273 31.8033 33.0345 31.7153C33.1264 31.8125 33.2576 31.8958 33.3049 32.0107C33.5158 32.5155 33.7023 33.033 33.8997 33.5454C34.8091 35.9132 36.5337 37.517 39.0735 38.3568C39.5872 38.5284 40.1023 38.6937 40.6106 38.8793C40.7506 38.9489 40.8813 39.0336 41 39.1317C40.88 39.2467 40.7435 39.3457 40.5944 39.4258C40.0009 39.6454 39.3926 39.8322 38.795 40.0455C36.4846 40.8722 34.888 42.3704 33.9998 44.5249C33.7767 45.0651 33.5766 45.6141 33.3589 46.1568C33.2967 46.3121 33.2116 46.4597 33.1372 46.6112L32.9101 46.6402Z" fill="url(#paint2_linear_2090_33)"/>
<defs>
<linearGradient id="paint0_linear_2090_33" x1="-2.52718" y1="6.03816" x2="31.8002" y2="34.3532" gradientUnits="userSpaceOnUse">
<stop offset="0.129808" stop-color="#2BA6FF"/>
<stop offset="0.346154" stop-color="#91CFFB"/>
<stop offset="1" stop-color="#2BA6FF"/>
</linearGradient>
<linearGradient id="paint1_linear_2090_33" x1="23.6956" y1="-1.21669" x2="41.413" y2="13.3975" gradientUnits="userSpaceOnUse">
<stop offset="0.129808" stop-color="#2BA6FF"/>
<stop offset="0.346154" stop-color="#91CFFB"/>
<stop offset="1" stop-color="#2BA6FF"/>
</linearGradient>
<linearGradient id="paint2_linear_2090_33" x1="23.6956" y1="30.4986" x2="41.413" y2="45.1129" gradientUnits="userSpaceOnUse">
<stop offset="0.129808" stop-color="#2BA6FF"/>
<stop offset="0.346154" stop-color="#91CFFB"/>
<stop offset="1" stop-color="#2BA6FF"/>
</linearGradient>
</defs>
</svg>
