<svg preserveAspectRatio="none" width="100%" height="100%" overflow="visible" style="display: block;" viewBox="0 0 36 36" fill="none" xmlns="http://www.w3.org/2000/svg">
<g id="Group 1707478059">
<circle id="Ellipse 1157" cx="18" cy="18" r="17.75" stroke="var(--stroke-0, #222222)" stroke-width="0.5"/>
<g id="Group 1707478058">
<path id="Vector" d="M17.9863 9.52246H17.9951C18.0669 9.52483 18.1348 9.55564 18.1846 9.60742C18.222 9.64648 18.2471 9.69563 18.2568 9.74805L18.2617 9.80176C18.261 9.86922 18.2333 9.93385 18.1855 9.98145C18.1376 10.0291 18.0725 10.0564 18.0049 10.0566H17.9941C16.975 10.0821 15.9501 10.2362 14.9717 10.666C12.2459 11.8644 10.5493 13.9571 10.1367 16.9336C9.57982 20.9567 12.0226 24.5992 15.9238 25.668V25.6689C16.2559 25.7604 16.6001 25.8159 16.9365 25.8564L17.9033 25.9531C18.0598 25.9692 18.153 26.0216 18.1992 26.0664C18.2384 26.1044 18.2638 26.1547 18.2607 26.2383V26.2393C18.2559 26.367 18.1635 26.5005 17.9229 26.499C16.0564 26.4806 14.2475 25.8497 12.7754 24.7021C11.3032 23.5544 10.2496 21.9542 9.77637 20.1484C8.56924 15.539 11.4404 10.803 16.0947 9.74414C16.5364 9.64393 16.9611 9.59582 17.4453 9.52344H17.5781C17.7566 9.52343 17.8567 9.5161 17.9863 9.52246Z" fill="var(--fill-0, white)" stroke="var(--stroke-0, #222222)"/>
<path id="Vector_2" d="M23.1982 14.6675C23.2366 14.6779 23.2721 14.6985 23.2998 14.7271L23.3057 14.7339C24.3401 15.7615 25.3713 16.7929 26.3984 17.8286C26.5123 17.9436 26.5177 18.08 26.3926 18.2065L26.3916 18.2075C25.3745 19.237 24.3499 20.2615 23.3174 21.2808H23.3164L23.3096 21.2886C23.286 21.3128 23.2576 21.332 23.2266 21.3452C23.1955 21.3584 23.1617 21.3657 23.1279 21.3657C23.094 21.3657 23.0596 21.3584 23.0283 21.3452C23.0128 21.3386 22.9982 21.3303 22.9844 21.3208L22.9453 21.2886L22.9385 21.2808L22.9043 21.2397C22.8945 21.2251 22.8857 21.2093 22.8789 21.1929C22.8654 21.1601 22.8582 21.1249 22.8584 21.0894C22.8587 21.0536 22.8667 21.0176 22.8809 20.9849C22.895 20.9522 22.9157 20.9225 22.9414 20.8979L22.9473 20.8931L22.9531 20.8872C23.4614 20.3687 23.9755 19.859 24.4951 19.3413L24.4941 19.3403C24.56 19.2762 24.6319 19.197 24.7012 19.1226L25.4834 18.2827H16.0791C15.9986 18.2856 15.9179 18.276 15.8398 18.2563C15.7864 18.2378 15.7399 18.2033 15.709 18.1558C15.6769 18.1064 15.6635 18.0473 15.6699 17.9888V17.9858C15.6766 17.9222 15.7058 17.8632 15.752 17.8188C15.7981 17.7746 15.8581 17.7479 15.9219 17.7437L15.9258 17.7427C15.9853 17.7384 16.0001 17.7446 16.1309 17.7446H25.415L24.7031 16.9185L24.5205 16.7095C23.9875 16.1745 23.4633 15.6646 22.9502 15.1323L22.9395 15.1216L22.8955 15.0649C22.8837 15.0448 22.8743 15.0232 22.8682 15.0005C22.8558 14.9546 22.8565 14.9057 22.8691 14.8599C22.8818 14.8142 22.9063 14.7727 22.9404 14.7397C22.9747 14.7067 23.0172 14.6834 23.0635 14.6724L23.0723 14.6704L23.0811 14.6675C23.1193 14.6569 23.1599 14.6571 23.1982 14.6675Z" fill="var(--fill-0, white)" stroke="var(--stroke-0, #222222)"/>
</g>
</g>
</svg>
