<svg preserveAspectRatio="none" width="100%" height="100%" overflow="visible" style="display: block;" viewBox="0 0 52.3449 30.7699" fill="none" xmlns="http://www.w3.org/2000/svg">
<g id="Mask group">
<mask id="mask0_2007_159" style="mask-type:alpha" maskUnits="userSpaceOnUse" x="0" y="0" width="53" height="31">
<path id="Vector" d="M46.7365 -2.34842e-05H5.60836C4.12092 -2.34842e-05 2.69441 0.347315 1.64263 0.965581C0.590856 1.58385 -2.58676e-05 2.4224 -2.58676e-05 3.29676L-2.58676e-05 27.4731C-2.58676e-05 28.3475 0.590856 29.186 1.64263 29.8043C2.69441 30.4226 4.12092 30.7699 5.60836 30.7699H21.6448V20.3088H14.2838V15.3849H21.6448V11.6321C21.6448 7.36347 25.968 5.00559 32.5894 5.00559C35.7604 5.00559 39.0764 5.33801 39.0764 5.33801V9.52767H35.4228C31.8229 9.52767 30.7 10.8409 30.7 12.1878V15.3849H38.7364L37.4511 20.3088H30.7V30.7699H46.7365C48.2239 30.7699 49.6505 30.4226 50.7022 29.8043C51.754 29.186 52.3449 28.3475 52.3449 27.4731V3.29676C52.3449 2.4224 51.754 1.58385 50.7022 0.965581C49.6505 0.347315 48.2239 -2.34842e-05 46.7365 -2.34842e-05Z" fill="var(--fill-0, black)"/>
</mask>
<g mask="url(#mask0_2007_159)">
<rect id="Rectangle 3129" x="-5.47788" y="1477.07" width="62.0835" height="67.5615" fill="var(--fill-0, #3B4EFC)"/>
</g>
</g>
</svg>
