<svg preserveAspectRatio="none" width="100%" height="100%" overflow="visible" style="display: block;" viewBox="0 0 39 25" fill="none" xmlns="http://www.w3.org/2000/svg">
<path id="Vector" d="M6.09656 10.7046H36.8682C37.1075 10.6934 37.3472 10.706 37.584 10.7422C38.0044 10.8287 38.3793 11.0662 38.639 11.4104C38.8987 11.7546 39.0255 12.1822 38.9958 12.6136C38.966 13.045 38.7819 13.4509 38.4775 13.7556C38.1731 14.0604 37.7693 14.2434 37.3411 14.2705C37.1392 14.2856 36.9355 14.2705 36.7336 14.2705H6.08161C6.29094 14.4909 6.41804 14.6303 6.55261 14.766L13.6026 21.8828C14.1128 22.3971 14.3165 23.0018 14.1091 23.7157C14.0288 24.0251 13.8634 24.3053 13.6319 24.524C13.4004 24.7426 13.1123 24.8908 12.8008 24.9515C12.1111 25.1116 11.541 24.8648 11.0495 24.3656C9.4496 22.7418 7.84473 21.1224 6.23487 19.5074L0.7904 14.02C-0.256255 12.9632 -0.263731 12.0326 0.76984 10.989C4.20137 7.5279 7.6354 4.06741 11.0719 0.607557C12.1354 -0.462423 13.7839 -0.0592979 14.1296 1.34788C14.3072 2.06748 14.053 2.65333 13.5446 3.16383C11.2183 5.50096 8.89449 7.84311 6.57316 10.1903C6.4386 10.3278 6.30963 10.4747 6.09656 10.7046Z" fill="var(--fill-0, #222222)"/>
</svg>
