<svg preserveAspectRatio="none" width="100%" height="100%" overflow="visible" style="display: block;" viewBox="0 0 52.3449 52.2345" fill="none" xmlns="http://www.w3.org/2000/svg">
<g id="Mask group">
<mask id="mask0_2003_81" style="mask-type:alpha" maskUnits="userSpaceOnUse" x="0" y="0" width="53" height="53">
<path id="Vector" d="M46.7364 0H5.6083C4.12086 0 2.69435 0.589636 1.64257 1.63919C0.590795 2.68875 -8.69027e-05 4.11226 -8.69027e-05 5.59656L-8.69027e-05 46.638C-8.69027e-05 48.1223 0.590795 49.5458 1.64257 50.5954C2.69435 51.6449 4.12086 52.2345 5.6083 52.2345H21.6448V34.476H14.2838V26.1173H21.6448V19.7465C21.6448 12.5001 25.9679 8.49744 32.5893 8.49744C35.7604 8.49744 39.0763 9.06176 39.0763 9.06176V16.1741H35.4227C31.8228 16.1741 30.7 18.4033 30.7 20.6898V26.1173H38.7363L37.4511 34.476H30.7V52.2345H46.7364C48.2239 52.2345 49.6504 51.6449 50.7022 50.5954C51.7539 49.5458 52.3448 48.1223 52.3448 46.638V5.59656C52.3448 4.11226 51.7539 2.68875 50.7022 1.63919C49.6504 0.589636 48.2239 0 46.7364 0Z" fill="var(--fill-0, black)"/>
</mask>
<g mask="url(#mask0_2003_81)">
<rect id="Rectangle 3129" x="-5.47794" y="-295.735" width="62.0835" height="67.5615" fill="var(--fill-0, #3B4EFC)"/>
</g>
</g>
</svg>
