<svg preserveAspectRatio="none" width="100%" height="100%" overflow="visible" style="display: block;" viewBox="0 0 259 258" fill="none" xmlns="http://www.w3.org/2000/svg">
<g id="Frame" clip-path="url(#clip0_2003_34)">
<path id="Vector" d="M218.897 79.2437C232.265 66.5813 245.632 53.919 259 41.2567C220.309 8.80145 167.155 -6.88598 117.616 2.86645C12.0138 23.6678 -32.8862 148.75 26.4187 235.931C31.8205 243.868 38.0002 251.287 44.8858 258C56.5825 244.66 68.2937 231.321 79.9905 217.982C56.5105 193.665 47.0753 156.658 56.0352 124.059C64.995 91.4594 92.0042 64.4638 124.602 55.5468C157.201 46.6299 194.207 56.1231 218.494 79.6182C218.623 79.503 218.767 79.3733 218.897 79.2437Z" fill="var(--fill-0, #E3FF3B)"/>
<path id="Vector_2" d="M194.236 108.271L218.897 79.2439C218.897 79.2439 275.321 143.621 236.327 200.134C228.606 211.327 220.885 221.18 209.634 229.29C183.086 248.449 146.152 256.185 115.455 243.249C108.671 240.397 102.087 236.983 95.9798 232.877C94.4817 231.869 78.5643 219.394 79.976 217.982L104.997 192.974C104.997 192.974 133.649 233.569 183 204.916C183 204.902 242.895 163.645 194.236 108.271Z" fill="var(--fill-0, #3B4EFC)"/>
<path id="Vector_3" d="M145.59 185.008C167.126 185.008 184.584 167.549 184.584 146.013C184.584 124.476 167.126 107.017 145.59 107.017C124.054 107.017 106.596 124.476 106.596 146.013C106.596 167.549 124.054 185.008 145.59 185.008Z" fill="var(--fill-0, #3B4EFC)"/>
</g>
<defs>
<clipPath id="clip0_2003_34">
<rect width="259" height="258" fill="white"/>
</clipPath>
</defs>
</svg>
