<svg preserveAspectRatio="none" width="100%" height="100%" overflow="visible" style="display: block;" viewBox="0 0 52.3449 57.2897" fill="none" xmlns="http://www.w3.org/2000/svg">
<g id="Mask group">
<mask id="mask0_2003_63" style="mask-type:alpha" maskUnits="userSpaceOnUse" x="0" y="0" width="53" height="58">
<path id="Vector" d="M46.7366 -3.05176e-05H5.60847C4.12104 -3.05176e-05 2.69452 0.646669 1.64275 1.7978C0.590969 2.94893 8.77844e-05 4.5102 8.77844e-05 6.13815L8.77844e-05 51.1515C8.77844e-05 52.7794 0.590969 54.3407 1.64275 55.4918C2.69452 56.6429 4.12104 57.2896 5.60847 57.2896H21.6449V37.8124H14.2839V28.6448H21.6449V21.6575C21.6449 13.7098 25.9681 9.31977 32.5895 9.31977C35.7605 9.31977 39.0765 9.93871 39.0765 9.93871V17.7393H35.4229C31.823 17.7393 30.7001 20.1843 30.7001 22.6921V28.6448H38.7365L37.4512 37.8124H30.7001V57.2896H46.7366C48.224 57.2896 49.6506 56.6429 50.7023 55.4918C51.7541 54.3407 52.345 52.7794 52.345 51.1515V6.13815C52.345 4.5102 51.7541 2.94893 50.7023 1.7978C49.6506 0.646669 48.224 -3.05176e-05 46.7366 -3.05176e-05Z" fill="var(--fill-0, black)"/>
</mask>
<g mask="url(#mask0_2003_63)">
<rect id="Rectangle 3129" x="-5.47789" y="-1125.85" width="62.0835" height="67.5615" fill="var(--fill-0, #3B4EFC)"/>
</g>
</g>
</svg>
