<svg preserveAspectRatio="none" width="100%" height="100%" overflow="visible" style="display: block;" viewBox="0 0 16 14.9249" fill="none" xmlns="http://www.w3.org/2000/svg">
<path id="Vector" d="M0 7.39938C1.8418 6.72453 3.76589 6.22375 5.21909 4.8463C6.64934 3.48903 7.18773 1.71298 8.00136 0C8.81094 1.73317 9.36144 3.53192 10.8241 4.88793C12.2867 6.24394 14.1852 6.71696 16 7.39938C16 7.45235 15.9906 7.50533 15.9852 7.55831C15.8211 7.64958 15.6513 7.73131 15.4765 7.80303C14.7924 8.04395 14.088 8.24326 13.4174 8.5132C11.3732 9.33563 9.90117 10.703 9.0565 12.6355C8.7718 13.2851 8.54108 13.9536 8.27122 14.6095C8.2029 14.7246 8.11848 14.8306 8.02023 14.9249C7.91769 14.8164 7.77467 14.7243 7.72204 14.5982C7.47647 14.0091 7.27139 13.4062 7.02312 12.8184C6.11908 10.674 4.5161 9.18426 2.20205 8.37318C1.63939 8.1764 1.07405 7.99476 0.51139 7.79168C0.345426 7.73365 0.186209 7.66553 0.022944 7.59111C0.0148482 7.52678 0.0080958 7.46371 0 7.39938Z" fill="url(#paint0_linear_2003_87)"/>
<defs>
<linearGradient id="paint0_linear_2003_87" x1="-1.30435" y1="-1.21669" x2="16.413" y2="13.3975" gradientUnits="userSpaceOnUse">
<stop offset="0.129808" stop-color="#2BA6FF"/>
<stop offset="0.346154" stop-color="#91CFFB"/>
<stop offset="1" stop-color="#2BA6FF"/>
</linearGradient>
</defs>
</svg>
