<svg preserveAspectRatio="none" width="100%" height="100%" overflow="visible" style="display: block;" viewBox="0 0 16 14.9249" fill="none" xmlns="http://www.w3.org/2000/svg">
<path id="Vector" d="M7.9101 14.9249C7.2098 13.1907 6.66363 11.3909 5.18868 10.0328C3.73671 8.69241 1.83186 8.19512 0 7.54133L0.0337981 7.36338C0.190621 7.2927 0.343388 7.20939 0.506971 7.15259C1.10452 6.94308 1.71154 6.75249 2.30639 6.5354C4.56951 5.71248 6.15035 4.24629 7.04893 2.13682C7.30579 1.53352 7.51534 0.912539 7.7641 0.306709C7.836 0.191581 7.9273 0.0880132 8.03448 0C8.12641 0.0971853 8.25755 0.180498 8.30487 0.295354C8.51577 0.800212 8.70232 1.31768 8.8997 1.83011C9.80909 4.1979 11.5337 5.80167 14.0735 6.64142C14.5872 6.81307 15.1023 6.97841 15.6106 7.16395C15.7506 7.23353 15.8813 7.31826 16 7.41638C15.88 7.53141 15.7435 7.63039 15.5944 7.71047C15.0009 7.93008 14.3926 8.11687 13.795 8.33017C11.4846 9.15688 9.88797 10.655 8.99976 12.8095C8.77669 13.3497 8.57659 13.8988 8.35893 14.4415C8.29674 14.5967 8.21159 14.7444 8.13723 14.8959L7.9101 14.9249Z" fill="url(#paint0_linear_2003_51)"/>
<defs>
<linearGradient id="paint0_linear_2003_51" x1="-1.30435" y1="-1.21669" x2="16.413" y2="13.3975" gradientUnits="userSpaceOnUse">
<stop offset="0.129808" stop-color="#2BA6FF"/>
<stop offset="0.346154" stop-color="#91CFFB"/>
<stop offset="1" stop-color="#2BA6FF"/>
</linearGradient>
</defs>
</svg>
