<svg preserveAspectRatio="none" width="100%" height="100%" overflow="visible" style="display: block;" viewBox="0 0 31 28.917" fill="none" xmlns="http://www.w3.org/2000/svg">
<path id="Vector" d="M15.48 0C15.7061 0.290982 15.8791 0.436473 15.9522 0.616488C16.4589 1.87042 16.9138 3.14161 17.4458 4.38569C19.2187 8.53588 22.3975 11.3606 26.9009 12.9105C28.0979 13.3235 29.3069 13.7082 30.4919 14.1299C30.6888 14.2002 30.8324 14.3975 31 14.5355C30.8284 14.6884 30.6848 14.9054 30.4786 14.9831C28.9079 15.5454 27.2866 16.0028 25.7544 16.6353C21.6141 18.3417 18.8011 21.2232 17.2503 25.1663C16.818 26.2624 16.4071 27.3659 15.9575 28.4558C15.8844 28.6346 15.6676 28.7641 15.5173 28.917C15.3524 28.7592 15.1183 28.6297 15.0332 28.4411C14.3269 26.7827 13.7736 25.0565 12.9371 23.4586C11.0511 19.8571 7.95482 17.4589 3.89295 16.1187C2.75978 15.7488 1.63192 15.3789 0.50141 14.9757C0.307228 14.9067 0.166252 14.7106 0 14.5738C0.171572 14.4221 0.313884 14.2039 0.516047 14.1299C2.28896 13.4814 4.1297 12.9709 5.83611 12.2065C9.72507 10.4667 12.3239 7.60745 13.7816 3.84811C14.1953 2.78159 14.6009 1.71383 15.0252 0.652241C15.1143 0.463596 15.2672 0.304545 15.48 0Z" fill="url(#paint0_linear_2003_55)"/>
<defs>
<linearGradient id="paint0_linear_2003_55" x1="-2.52718" y1="-2.35734" x2="31.8002" y2="25.9577" gradientUnits="userSpaceOnUse">
<stop offset="0.129808" stop-color="#2BA6FF"/>
<stop offset="0.346154" stop-color="#91CFFB"/>
<stop offset="1" stop-color="#2BA6FF"/>
</linearGradient>
</defs>
</svg>
