<svg width="25" height="24" viewBox="0 0 25 24" fill="none" xmlns="http://www.w3.org/2000/svg">
<path d="M24.7059 23.9989H10.7608V23.0093H23.6552C23.8023 20.0552 22.5025 17.06 19.6536 15.472C19.0322 16.0619 18.3352 16.5617 17.52 16.8614C15.0367 17.7742 12.7768 17.3747 10.7631 15.6549C10.5837 15.5017 10.4669 15.4658 10.278 15.6119C9.84641 15.9471 9.40365 16.2676 8.95852 16.5994L8.25781 15.926C8.99617 15.2042 9.82575 14.665 10.7235 14.1797C10.8629 14.3258 10.994 14.4654 11.1274 14.6029C13.3239 16.8679 16.7892 16.8924 19.02 14.659C19.506 14.1724 19.5058 14.173 20.1015 14.5271C23.1421 16.3343 24.5925 19.0563 24.7055 22.5441C24.719 23.0235 24.7059 23.5028 24.7059 23.9989Z" fill="#FF451C"/>
<path d="M15.0914 3.14457C18.3708 3.1321 21.0484 5.805 21.0534 9.09621C21.0583 12.3874 18.4061 15.0532 15.1112 15.0698C11.8443 15.0861 9.14492 12.3962 9.13868 9.11751C9.13244 5.83877 11.8073 3.15727 15.0914 3.14457ZM20.037 9.11772C20.0431 6.39297 17.845 4.1766 15.12 4.15961C12.4146 4.14282 10.1694 6.36888 10.1576 9.07986C10.1447 11.8083 12.3776 14.0558 15.0985 14.0552C17.8194 14.0545 20.031 11.8427 20.037 9.11772Z" fill="#FF451C"/>
<path d="M4.67594 13.543C6.02056 14.8295 7.34023 16.0894 8.65259 17.3568C8.71089 17.4131 8.74187 17.5504 8.71885 17.6304C8.51017 18.3593 8.50586 18.358 7.7391 18.358H6.7628C6.84498 20.3575 7.59044 21.9519 9.26122 23.0866C9.15171 23.3493 9.0549 23.6077 8.93356 23.8542C8.90323 23.9157 8.78296 23.9854 8.72229 23.9721C6.1191 23.4086 4.03073 22.1669 2.98558 19.5731C2.86164 19.2649 2.76363 18.9469 2.69256 18.6224C2.64545 18.4062 2.54777 18.3477 2.34253 18.3544C1.95657 18.3673 1.56953 18.3494 1.18357 18.3615C0.987792 18.3677 0.878716 18.3169 0.800836 18.1168C0.551488 17.4749 0.542668 17.4802 1.04222 17.0035C2.16898 15.9295 3.29488 14.8547 4.41992 13.7792C4.49673 13.706 4.5759 13.6353 4.67594 13.543ZM2.23862 17.2688L2.26594 17.343C2.58241 17.343 2.89931 17.3546 3.21492 17.3389C3.43006 17.3284 3.503 17.4006 3.53247 17.6199C3.81215 19.6951 4.83428 21.262 6.72214 22.2254C6.79077 22.2602 6.86628 22.2813 7.00806 22.3353C5.93236 20.7988 5.68236 19.1308 5.72432 17.3413H7.17565C6.29358 16.4968 5.48594 15.7247 4.66949 14.9442L2.23862 17.2688Z" fill="#FF451C"/>
<path d="M12.164 2.70673L11.2895 3.13486C10.734 2.11143 9.92052 1.41976 8.79878 1.1362C7.9849 0.930531 7.1792 0.992706 6.40298 1.31993C4.86946 1.96643 3.89832 3.62925 4.11281 5.23591C4.2462 6.23502 4.68745 7.07321 5.46367 7.71928C6.2399 8.36534 7.14585 8.63793 8.17659 8.59791C8.1981 8.93675 8.2179 9.25323 8.23769 9.56604C6.62392 9.81969 3.98717 8.79648 3.23827 6.04807C2.56595 3.57869 3.96845 1.00561 6.43761 0.228529C9.02919 -0.586852 11.3783 0.90622 12.164 2.70673Z" fill="#FF451C"/>
<path d="M0.96017 15.0975L0 14.9512C0.201586 12.6492 1.69659 10.0015 4.26623 8.80078C5.41873 10.1777 6.88083 10.7469 8.71038 10.3821L8.96984 11.3566C7.09855 11.7618 5.47897 11.3416 4.05582 10.0675C2.23315 11.2508 1.30439 12.9822 0.96017 15.0975Z" fill="#FF451C"/>
</svg>
