<svg width="80" height="81" viewBox="0 0 80 81" fill="none" xmlns="http://www.w3.org/2000/svg">
<rect x="-23.4" y="-19.8003" width="107.1" height="117.9" fill="white"/>
<path d="M40 18.4C27.85 18.4 18 28.25 18 40.4C18 52.55 27.85 62.4 40 62.4C52.15 62.4 62 52.55 62 40.4C62 28.25 52.15 18.4 40 18.4ZM50.85 31.15L47.15 50.05C46.85 51.45 45.95 51.85 44.7 51.15L38.15 46.35L35 49.35C34.65 49.7 34.35 50 33.65 50L34.15 43.35L46.35 32.35C46.85 31.9 46.2 31.65 45.5 32.1L30.4 41.55L24 39.65C22.6 39.2 22.6 38.2 24.35 37.5L49.25 28.15C50.4 27.7 51.4 28.45 50.85 31.15Z" fill="white"/>
</svg>
