<svg width="80" height="81" viewBox="0 0 80 81" fill="none" xmlns="http://www.w3.org/2000/svg">
<rect x="-23.4" y="-19.8003" width="107.1" height="117.9" fill="white"/>
<path d="M63.5 24.2C62.8 21.5 60.7 19.4 58.1 18.7C53.5 17.5 40 17.5 40 17.5C40 17.5 26.5 17.5 21.9 18.7C19.3 19.4 17.2 21.5 16.5 24.2C15.3 28.8 15.3 38.4 15.3 38.4C15.3 38.4 15.3 48 16.5 52.6C17.2 55.3 19.3 57.4 21.9 58.1C26.5 59.3 40 59.3 40 59.3C40 59.3 53.5 59.3 58.1 58.1C60.7 57.4 62.8 55.3 63.5 52.6C64.7 48 64.7 38.4 64.7 38.4C64.7 38.4 64.7 28.8 63.5 24.2ZM33.8 46.7V30.1L47.2 38.4L33.8 46.7Z" fill="white"/>
</svg>
