<svg preserveAspectRatio="none" width="100%" height="100%" overflow="visible" style="display: block;" viewBox="0 0 52.3449 16.9208" fill="none" xmlns="http://www.w3.org/2000/svg">
<g id="Mask group">
<mask id="mask0_2016_228" style="mask-type:alpha" maskUnits="userSpaceOnUse" x="0" y="0" width="53" height="17">
<path id="Vector" d="M46.7365 5.72205e-05H5.60836C4.12092 5.72205e-05 2.69441 0.191064 1.64263 0.531057C0.590856 0.871051 -2.58676e-05 1.33218 -2.58676e-05 1.813L-2.58676e-05 15.1079C-2.58676e-05 15.5888 0.590856 16.0499 1.64263 16.3899C2.69441 16.7299 4.12092 16.9209 5.60836 16.9209H21.6448V11.1682H14.2838V8.46048H21.6448V6.39674C21.6448 4.04935 25.968 2.75271 32.5894 2.75271C35.7604 2.75271 39.0764 2.93552 39.0764 2.93552V5.23947H35.4228C31.8229 5.23947 30.7 5.96163 30.7 6.7023V8.46048H38.7364L37.4511 11.1682H30.7V16.9209H46.7365C48.2239 16.9209 49.6505 16.7299 50.7022 16.3899C51.754 16.0499 52.3449 15.5888 52.3449 15.1079V1.813C52.3449 1.33218 51.754 0.871051 50.7022 0.531057C49.6505 0.191064 48.2239 5.72205e-05 46.7365 5.72205e-05Z" fill="var(--fill-0, black)"/>
</mask>
<g mask="url(#mask0_2016_228)">
<rect id="Rectangle 3129" x="-5.47788" y="1800.9" width="62.0835" height="67.5615" fill="var(--fill-0, #3B4EFC)"/>
</g>
</g>
</svg>
