<svg preserveAspectRatio="none" width="100%" height="100%" overflow="visible" style="display: block;" viewBox="0 0 52.3449 18.5584" fill="none" xmlns="http://www.w3.org/2000/svg">
<g id="Mask group">
<mask id="mask0_2016_234" style="mask-type:alpha" maskUnits="userSpaceOnUse" x="0" y="0" width="53" height="19">
<path id="Vector" d="M46.7365 3.05176e-05H5.60835C4.12091 3.05176e-05 2.6944 0.209522 1.64262 0.582419C0.590847 0.955317 -3.42859e-05 1.46107 -3.42859e-05 1.98843L-3.42859e-05 16.57C-3.42859e-05 17.0974 0.590847 17.6031 1.64262 17.976C2.6944 18.3489 4.12091 18.5584 5.60835 18.5584H21.6448V12.249H14.2838V9.27923H21.6448V7.01577C21.6448 4.4412 25.968 3.01908 32.5893 3.01908C35.7604 3.01908 39.0764 3.21958 39.0764 3.21958V5.74651H35.4227C31.8229 5.74651 30.7 6.53855 30.7 7.35089V9.27923H38.7364L37.4511 12.249H30.7V18.5584H46.7365C48.2239 18.5584 49.6504 18.3489 50.7022 17.976C51.754 17.6031 52.3449 17.0974 52.3449 16.57V1.98843C52.3449 1.46107 51.754 0.955317 50.7022 0.582419C49.6504 0.209522 48.2239 3.05176e-05 46.7365 3.05176e-05Z" fill="var(--fill-0, black)"/>
</mask>
<g mask="url(#mask0_2016_234)">
<rect id="Rectangle 3129" x="-5.47801" y="1532.18" width="62.0835" height="67.5615" fill="var(--fill-0, #3B4EFC)"/>
</g>
</g>
</svg>
