<svg width="240" height="243" viewBox="0 0 240 243" fill="none" xmlns="http://www.w3.org/2000/svg">
<path d="M236.865 115.876L222.534 104.765V104.78L218.864 101.92V107.453L230.368 116.362L234.022 119.193C234.79 119.795 235.226 120.68 235.226 121.639C235.226 122.583 234.79 123.47 234.022 124.069L218.864 135.808V213.834C218.864 227.216 207.406 238.098 193.346 238.098H30.1631C16.0891 238.098 4.64507 227.216 4.64507 213.834V143.385L4.62398 143.4L4.56777 30.8457C4.56425 24.5145 7.15382 18.5626 11.8604 14.084C16.5669 9.60536 22.8248 7.13803 29.4832 7.13636L204.125 7.07622C204.905 9.07915 206.93 10.5074 209.309 10.5074C212.361 10.5074 214.834 8.15537 214.834 5.25371C214.834 2.35206 212.361 0 209.309 0C207.218 0 205.398 1.1042 204.46 2.73293L29.4832 2.79307C21.6055 2.79641 14.1987 5.71644 8.63132 11.0153C3.06041 16.3124 -0.00351065 23.3569 3.01872e-06 30.8474L0.0597353 150.624H0.133522V213.834C0.133522 229.576 13.6067 242.387 30.1631 242.387H193.346C209.903 242.387 223.376 229.576 223.376 213.834V137.853L236.865 127.387C238.699 125.972 239.737 123.869 239.737 121.639C239.737 119.394 238.699 117.291 236.865 115.876Z" fill="#94C83E"/>
</svg>
