<svg width="240" height="142" viewBox="0 0 240 142" fill="none" xmlns="http://www.w3.org/2000/svg">
<path d="M239.985 20.639C239.985 22.8691 238.946 24.9706 237.112 26.3871L223.623 36.8528V112.834C223.623 128.576 210.15 141.387 193.594 141.387H30.4104C13.854 141.387 0.380798 128.576 0.380798 112.834V45.8751L4.89237 42.3871V112.834C4.89237 126.216 16.3364 137.098 30.4104 137.098H193.594C207.654 137.098 219.112 126.216 219.112 112.834V34.8081L234.27 23.0695C235.037 22.4681 235.473 21.5828 235.473 20.639C235.473 19.6801 235.037 18.7947 234.27 18.1933L230.615 15.3619L219.112 6.45309V0.92041L222.782 3.7803V3.76526L237.112 14.8757C238.946 16.2906 239.985 18.3938 239.985 20.639Z" fill="#FF451C"/>
</svg>
