<svg width="241" height="141" viewBox="0 0 241 141" fill="none" xmlns="http://www.w3.org/2000/svg">
<path d="M240.159 120.786C240.159 118.556 239.121 116.454 237.287 115.037L223.798 104.572V28.5909C223.798 12.8481 210.324 0.0371094 193.768 0.0371094H30.5846C14.0282 0.0371094 0.555115 12.8481 0.555115 28.5909V95.5494L5.06665 99.0374V28.5909C5.06665 15.2086 16.5107 4.32694 30.5846 4.32694H193.768C207.828 4.32694 219.286 15.2086 219.286 28.5909V106.616L234.444 118.355C235.212 118.956 235.647 119.842 235.647 120.786C235.647 121.744 235.212 122.63 234.444 123.231L230.79 126.063L219.286 134.971V140.504L222.956 137.644V137.659L237.287 126.549C239.122 125.132 240.159 123.031 240.159 120.786Z" fill="#6705C4"/>
</svg>
