<svg preserveAspectRatio="none" width="100%" height="100%" overflow="visible" style="display: block;" viewBox="0 0 52 47" fill="none" xmlns="http://www.w3.org/2000/svg">
<path id="Vector" d="M25.9665 0C26.3458 0.472946 26.6358 0.709419 26.7585 1.002C27.6085 3.04008 28.3715 5.1062 29.2639 7.12824C32.2379 13.8737 37.5699 18.4649 45.1241 20.984C47.132 21.6553 49.1599 22.2806 51.1477 22.9659C51.4779 23.0802 51.7189 23.4008 52 23.6252C51.7122 23.8737 51.4712 24.2265 51.1254 24.3527C48.4906 25.2665 45.7711 26.01 43.2009 27.0381C36.2559 29.8116 31.5373 34.495 28.936 40.9038C28.2109 42.6854 27.5215 44.479 26.7675 46.2505C26.6448 46.5411 26.2811 46.7515 26.029 47C25.7524 46.7435 25.3597 46.5331 25.2169 46.2265C24.0323 43.5311 23.1042 40.7254 21.7009 38.1283C18.5373 32.2745 13.3436 28.3767 6.53011 26.1984C4.6293 25.5972 2.73742 24.996 0.841075 24.3407C0.51535 24.2284 0.278874 23.9098 0 23.6874C0.287798 23.4409 0.526516 23.0862 0.865627 22.9659C3.83954 21.9118 6.92724 21.0822 9.7896 19.8397C16.313 17.012 20.6724 12.3647 23.1176 6.2545C23.8114 4.52103 24.4918 2.78557 25.2035 1.06012C25.353 0.753502 25.6096 0.49499 25.9665 0Z" fill="url(#paint0_linear_2011_172)"/>
<defs>
<linearGradient id="paint0_linear_2011_172" x1="-4.23914" y1="-3.83149" x2="51.8633" y2="43.9275" gradientUnits="userSpaceOnUse">
<stop offset="0.346154" stop-color="#C886E5"/>
<stop offset="1" stop-color="#8501BD"/>
</linearGradient>
</defs>
</svg>
