<svg preserveAspectRatio="none" width="100%" height="100%" overflow="visible" style="display: block;" viewBox="0 0 52.3449 44.8969" fill="none" xmlns="http://www.w3.org/2000/svg">
<g id="Mask group">
<mask id="mask0_2011_178" style="mask-type:alpha" maskUnits="userSpaceOnUse" x="0" y="-1" width="53" height="46">
<path id="Vector" d="M46.7364 -0.000120997H5.6083C4.12086 -0.000120997 2.69435 0.506686 1.64257 1.40881C0.590795 2.31093 -8.69027e-05 3.53447 -8.69027e-05 4.81026L-8.69027e-05 40.0864C-8.69027e-05 41.3622 0.590795 42.5857 1.64257 43.4879C2.69435 44.39 4.12086 44.8968 5.6083 44.8968H21.6448V29.6328H14.2838V22.4483H21.6448V16.9725C21.6448 10.7441 25.9679 7.30365 32.5893 7.30365C35.7604 7.30365 39.0763 7.78869 39.0763 7.78869V13.9019H35.4227C31.8228 13.9019 30.7 15.818 30.7 17.7833V22.4483H38.7363L37.4511 29.6328H30.7V44.8968H46.7364C48.2239 44.8968 49.6504 44.39 50.7022 43.4879C51.7539 42.5857 52.3448 41.3622 52.3448 40.0864V4.81026C52.3448 3.53447 51.7539 2.31093 50.7022 1.40881C49.6504 0.506686 48.2239 -0.000120997 46.7364 -0.000120997Z" fill="var(--fill-0, black)"/>
</mask>
<g mask="url(#mask0_2011_178)">
<rect id="Rectangle 3129" x="-5.47794" y="174.229" width="62.0835" height="67.5615" fill="var(--fill-0, #3B4EFC)"/>
</g>
</g>
</svg>
