<svg preserveAspectRatio="none" width="100%" height="100%" overflow="visible" style="display: block;" viewBox="0 0 27 25" fill="none" xmlns="http://www.w3.org/2000/svg">
<path id="Vector" d="M0 12.3944C3.10803 11.2639 6.35494 10.4251 8.80721 8.11782C11.2208 5.84432 12.1293 2.86934 13.5023 0C14.8685 2.90315 15.7974 5.91616 18.2656 8.18755C20.7339 10.4589 23.9375 11.2513 27 12.3944C27 12.4831 26.9841 12.5718 26.975 12.6606C26.6982 12.8135 26.4115 12.9504 26.1165 13.0705C24.9621 13.4741 23.7736 13.8079 22.6419 14.2601C19.1924 15.6377 16.7082 17.9281 15.2829 21.1651C14.8024 22.2532 14.4131 23.3731 13.9577 24.4718C13.8424 24.6645 13.6999 24.8421 13.5341 25C13.3611 24.8183 13.1198 24.6641 13.0309 24.4528C12.6165 23.466 12.2705 22.4561 11.8515 21.4714C10.326 17.8795 7.62092 15.3841 3.71596 14.0255C2.76648 13.6959 1.81246 13.3917 0.862971 13.0515C0.582907 12.9543 0.314228 12.8402 0.0387181 12.7155C0.0250564 12.6078 0.0136617 12.5021 0 12.3944Z" fill="url(#paint0_linear_2011_182)"/>
<defs>
<linearGradient id="paint0_linear_2011_182" x1="-2.20109" y1="-2.03803" x2="27.5175" y2="22.6576" gradientUnits="userSpaceOnUse">
<stop stop-color="#C886E5"/>
<stop offset="1" stop-color="#8501BD"/>
</linearGradient>
</defs>
</svg>
