<svg preserveAspectRatio="none" width="100%" height="100%" overflow="visible" style="display: block;" viewBox="0 0 27 25" fill="none" xmlns="http://www.w3.org/2000/svg">
<path id="Vector" d="M13.3483 25C12.1665 22.0951 11.2449 19.0803 8.7559 16.8055C6.30571 14.5603 3.09126 13.7273 0 12.6321L0.0570342 12.3341C0.321673 12.2157 0.579468 12.0761 0.855513 11.981C1.86388 11.63 2.88823 11.3108 3.89203 10.9472C7.71104 9.56872 10.3787 7.11277 11.8951 3.57929C12.3285 2.56872 12.6821 1.52855 13.1019 0.513753C13.2232 0.320908 13.3773 0.147427 13.5582 0C13.7133 0.162791 13.9346 0.302344 14.0145 0.494733C14.3704 1.3404 14.6852 2.20719 15.0182 3.06554C16.5528 7.03171 19.4631 9.71811 23.749 11.1247C24.616 11.4123 25.4852 11.6892 26.343 12C26.5791 12.1166 26.7997 12.2585 27 12.4228C26.7975 12.6155 26.5672 12.7813 26.3156 12.9155C25.3141 13.2833 24.2875 13.5962 23.2791 13.9535C19.3802 15.3383 16.686 17.8478 15.1871 21.4567C14.8107 22.3615 14.473 23.2812 14.1057 24.1903C14.0008 24.4503 13.8571 24.6977 13.7316 24.9514L13.3483 25Z" fill="url(#paint0_linear_2011_170)"/>
<defs>
<linearGradient id="paint0_linear_2011_170" x1="-2.20109" y1="-2.03803" x2="27.5175" y2="22.6576" gradientUnits="userSpaceOnUse">
<stop offset="0.346154" stop-color="#C886E5"/>
<stop offset="1" stop-color="#8501BD"/>
</linearGradient>
</defs>
</svg>
