<svg preserveAspectRatio="none" width="100%" height="100%" overflow="visible" style="display: block;" viewBox="0 0 52.3449 49.2419" fill="none" xmlns="http://www.w3.org/2000/svg">
<g id="Mask group">
<mask id="mask0_2011_174" style="mask-type:alpha" maskUnits="userSpaceOnUse" x="0" y="0" width="53" height="50">
<path id="Vector" d="M46.7366 -2.0504e-05H5.60847C4.12104 -2.0504e-05 2.69452 0.555834 1.64275 1.54526C0.590969 2.53469 8.77844e-05 3.87664 8.77844e-05 5.2759L8.77844e-05 43.966C8.77844e-05 45.3653 0.590969 46.7072 1.64275 47.6966C2.69452 48.6861 4.12104 49.2419 5.60847 49.2419H21.6449V32.5008H14.2839V24.6209H21.6449V18.6152C21.6449 11.784 25.9681 8.01059 32.5895 8.01059C35.7605 8.01059 39.0765 8.54258 39.0765 8.54258V15.2474H35.4229C31.823 15.2474 30.7001 17.349 30.7001 19.5044V24.6209H38.7365L37.4512 32.5008H30.7001V49.2419H46.7366C48.224 49.2419 49.6506 48.6861 50.7023 47.6966C51.7541 46.7072 52.345 45.3653 52.345 43.966V5.2759C52.345 3.87664 51.7541 2.53469 50.7023 1.54526C49.6506 0.555834 48.224 -2.0504e-05 46.7366 -2.0504e-05Z" fill="var(--fill-0, black)"/>
</mask>
<g mask="url(#mask0_2011_174)">
<rect id="Rectangle 3129" x="-5.47789" y="-539.24" width="62.0835" height="67.5615" fill="var(--fill-0, #3B4EFC)"/>
</g>
</g>
</svg>
