<svg preserveAspectRatio="none" width="100%" height="100%" overflow="visible" style="display: block;" viewBox="0 0 13 22" fill="none" xmlns="http://www.w3.org/2000/svg">
<path id="Vector" d="M9.72148 11.0009L6.10052 7.63993C4.28027 5.95946 2.45148 4.27899 0.64955 2.57137C0.365594 2.3003 0.154907 1.95407 0.039137 1.56826C-0.113466 1.01629 0.197844 0.446219 0.666639 0.168295C1.13544 -0.109629 1.73364 -0.0488721 2.21708 0.391929C3.24258 1.32653 4.25708 2.27406 5.26914 3.21771L12.2999 9.73406C13.2362 10.6027 13.2338 11.4145 12.2901 12.2832L2.36358 21.4793C1.72753 22.0687 1.06341 22.1618 0.532348 21.7378C-0.151312 21.1949 -0.180611 20.2021 0.50305 19.5558C1.80323 18.3277 3.12171 17.123 4.43165 15.9079L9.72148 11.0009Z" fill="var(--fill-0, #CCCCCC)"/>
</svg>
