<svg preserveAspectRatio="none" width="100%" height="100%" overflow="visible" style="display: block;" viewBox="0 0 41.25 33.0001" fill="none" xmlns="http://www.w3.org/2000/svg">
<g id="Group 1000005586">
<path id="Vector" d="M15.9906 16.4877C15.9906 13.9248 18.0684 11.8471 20.6312 11.8471C23.1941 11.8471 25.2718 13.9248 25.2718 16.4877C25.2718 19.0505 23.1941 21.1283 20.6312 21.1283C18.0684 21.1283 15.9906 19.0505 15.9906 16.4877Z" fill="var(--fill-0, #B5B5B5)"/>
<path id="Vector_2" fill-rule="evenodd" clip-rule="evenodd" d="M0 16.5C0 19.8813 0.87648 21.02 2.62946 23.2974C6.12967 27.8446 11.9999 33 20.625 33C29.2502 33 35.1202 27.8446 38.6205 23.2974C40.3734 21.02 41.25 19.8813 41.25 16.5C41.25 13.1187 40.3734 11.9801 38.6205 9.70268C35.1202 5.15534 29.2502 0 20.625 0C11.9999 0 6.12967 5.15534 2.62946 9.70268C0.87648 11.9801 0 13.1187 0 16.5ZM20.625 8.76563C16.3534 8.76563 12.8906 12.2284 12.8906 16.5C12.8906 20.7716 16.3534 24.2344 20.625 24.2344C24.8966 24.2344 28.3594 20.7716 28.3594 16.5C28.3594 12.2284 24.8966 8.76563 20.625 8.76563Z" fill="var(--fill-0, #B5B5B5)"/>
</g>
</svg>
