<svg preserveAspectRatio="none" width="100%" height="100%" overflow="visible" style="display: block;" viewBox="0 0 196.396 98.198" fill="none" xmlns="http://www.w3.org/2000/svg">
<path id="Ellipse 677" d="M196.396 98.198C196.396 85.3025 193.856 72.5332 188.921 60.6193C183.986 48.7053 176.753 37.8801 167.635 28.7615C158.516 19.643 147.691 12.4098 135.777 7.47488C123.863 2.53997 111.094 -5.63682e-07 98.198 0C85.3025 5.63682e-07 72.5332 2.53997 60.6193 7.47488C48.7053 12.4098 37.8801 19.643 28.7615 28.7615C19.643 37.8801 12.4098 48.7053 7.47488 60.6193C2.53996 72.5332 -1.12736e-06 85.3025 0 98.198L29.9504 98.198C29.9504 89.2356 31.7157 80.361 35.1454 72.0808C38.5752 63.8006 43.6023 56.2771 49.9397 49.9397C56.277 43.6023 63.8006 38.5752 72.0808 35.1454C80.361 31.7157 89.2356 29.9504 98.198 29.9504C107.16 29.9504 116.035 31.7157 124.315 35.1454C132.595 38.5752 140.119 43.6023 146.456 49.9397C152.794 56.277 157.821 63.8006 161.251 72.0808C164.68 80.361 166.446 89.2356 166.446 98.198H196.396Z" fill="var(--fill-0, #3B4EFC)"/>
</svg>
