<svg preserveAspectRatio="none" width="100%" height="100%" overflow="visible" style="display: block;" viewBox="0 0 24.0136 24" fill="none" xmlns="http://www.w3.org/2000/svg">
<g id="Group 1707478086">
<path id="Vector" d="M14.5264 24H13.447C13.1965 23.9624 12.9711 23.9299 12.7332 23.8823C10.5804 23.4729 8.67404 22.2355 7.42352 20.436C6.70472 19.4342 6.10362 18.3547 5.45995 17.3028C4.25276 15.3343 3.04807 13.3632 1.84589 11.3896C1.69002 11.1594 1.58257 10.9 1.53004 10.627C1.47752 10.3541 1.48102 10.0733 1.54033 9.80172C1.61076 9.45585 1.77131 9.13472 2.00572 8.87084C2.24014 8.60696 2.54011 8.40969 2.87526 8.29899L3.0105 8.51438L5.14438 12.0959C5.17694 12.1485 5.20699 12.2036 5.24205 12.2562C5.26407 12.3041 5.29573 12.3469 5.33505 12.382C5.37437 12.4171 5.42051 12.4437 5.47057 12.4601C5.52064 12.4766 5.57357 12.4825 5.62604 12.4776C5.67851 12.4727 5.72939 12.457 5.77552 12.4315C5.82188 12.4052 5.86207 12.3693 5.8934 12.3262C5.92472 12.2831 5.94646 12.2338 5.95714 12.1816C5.96781 12.1294 5.96719 12.0755 5.9553 12.0236C5.94342 11.9716 5.92055 11.9229 5.88823 11.8805C5.53008 11.2694 5.16442 10.6608 4.79875 10.0497C4.11751 8.9126 3.42626 7.78055 2.75003 6.63847C2.59958 6.39538 2.50174 6.12346 2.46281 5.84025C2.42389 5.55703 2.44474 5.26879 2.52402 4.99413C2.60331 4.71946 2.73927 4.46445 2.92314 4.24555C3.10701 4.02664 3.33471 3.84869 3.59156 3.72317C3.76437 3.64052 3.84201 3.65055 3.95973 3.82837C5.212 5.89212 6.46845 7.95086 7.72907 10.0046C7.77114 10.0796 7.81712 10.1523 7.86682 10.2225C7.92154 10.3002 8.00404 10.354 8.09727 10.3726C8.1905 10.3913 8.28732 10.3734 8.36773 10.3227C8.44647 10.276 8.50466 10.2012 8.53066 10.1135C8.55667 10.0257 8.54857 9.93136 8.50799 9.8493C8.47973 9.78547 8.44445 9.72499 8.40279 9.66898C7.73491 8.57365 7.06703 7.48083 6.39915 6.39052C5.73545 5.30605 5.06673 4.22408 4.41054 3.1346C4.23783 2.87059 4.12892 2.57001 4.09241 2.25664C4.0559 1.94327 4.0928 1.62571 4.20018 1.32906C4.30757 1.03241 4.4825 0.764815 4.71114 0.547431C4.93979 0.330047 5.21587 0.168837 5.51756 0.0765521C5.94979 -0.047142 6.41123 -0.0203301 6.82623 0.152587C7.24123 0.325505 7.58518 0.634274 7.8017 1.02828C9.02559 3.03192 10.2478 5.02888 11.4684 7.01916C11.508 7.09514 11.5559 7.16653 11.6111 7.23205C11.6638 7.29717 11.7387 7.34058 11.8214 7.35398C11.9041 7.36738 11.9889 7.34983 12.0594 7.30468C12.1379 7.26657 12.1992 7.20037 12.2312 7.1192C12.2633 7.03803 12.2636 6.94781 12.2322 6.86639C12.2007 6.78701 12.1604 6.7114 12.112 6.64097L8.82857 1.26621L8.70083 1.0408C8.90781 0.81745 9.16504 0.646646 9.45121 0.542547C9.73737 0.438449 10.0442 0.40405 10.3463 0.442214C10.6661 0.480061 10.9722 0.593655 11.2392 0.773558C11.5062 0.95346 11.7264 1.19448 11.8816 1.47659C13.209 3.6472 14.5448 5.81781 15.8889 7.98842C15.929 8.05604 15.9715 8.12116 16.0141 8.18879C16.0741 7.80477 16.1118 7.41757 16.1268 7.02918C16.1533 6.53449 16.3641 6.06766 16.7177 5.72073C17.0713 5.3738 17.5421 5.17194 18.0372 5.15497C18.5323 5.13799 19.0158 5.30713 19.3924 5.62902C19.7689 5.95092 20.0112 6.40222 20.0715 6.89393C20.1291 7.39484 20.1692 7.9208 20.2168 8.43423C20.4722 11.2176 20.7277 14.001 20.9831 16.7844C21.0671 17.5954 20.9818 18.415 20.7327 19.1913C19.9438 21.5681 18.153 22.888 15.9139 23.6995C15.4594 23.8332 14.9956 23.9337 14.5264 24Z" fill="var(--fill-0, #FFD600)"/>
<path id="Vector_2" d="M0 16.5463C0.0601092 16.2733 0.112706 16.0003 0.185338 15.7298C0.25797 15.4593 0.43579 15.3341 0.65619 15.3917C0.876591 15.4493 0.981782 15.6547 0.906645 15.9327C0.335608 17.8787 1.47017 19.5643 2.54462 20.3432C2.72095 20.4571 2.90701 20.5551 3.10063 20.6362C3.15099 20.6511 3.19774 20.6762 3.238 20.7099C3.27825 20.7437 3.31114 20.7853 3.33462 20.8323C3.35811 20.8793 3.37169 20.9306 3.37452 20.983C3.37735 21.0354 3.36938 21.0879 3.35109 21.1371C3.33203 21.1864 3.30281 21.231 3.26533 21.2682C3.22785 21.3054 3.18294 21.3343 3.13355 21.353C3.08416 21.3716 3.03139 21.3797 2.97868 21.3766C2.92596 21.3735 2.8745 21.3593 2.82764 21.335C2.07712 21.0313 1.4362 20.5074 0.989296 19.8323C0.473004 19.1607 0.145319 18.3636 0.0400737 17.5231C0.0327007 17.4939 0.0208742 17.466 0.00501017 17.4404L0 16.5463Z" fill="var(--fill-0, #444444)"/>
<path id="Vector_3" d="M2.04121 16.8169C2.08379 16.5664 2.11385 16.316 2.17146 16.0805C2.17899 16.0282 2.19742 15.978 2.22556 15.9332C2.2537 15.8884 2.29093 15.85 2.33483 15.8205C2.37873 15.791 2.42834 15.7711 2.48043 15.7619C2.53253 15.7528 2.58597 15.7547 2.6373 15.7675C2.68852 15.781 2.73626 15.8053 2.77736 15.8387C2.81846 15.8722 2.85198 15.914 2.87567 15.9614C2.89936 16.0087 2.91269 16.0606 2.91477 16.1136C2.91686 16.1665 2.90765 16.2193 2.88775 16.2684C2.65733 17.1099 2.93033 17.8037 3.50888 18.4023C3.65698 18.5454 3.82586 18.6653 4.00979 18.7579C4.26025 18.8906 4.35292 19.076 4.26025 19.2813C4.23797 19.3318 4.20499 19.3769 4.16358 19.4133C4.12218 19.4498 4.07334 19.4768 4.02046 19.4925C3.96757 19.5083 3.9119 19.5123 3.85729 19.5044C3.80269 19.4965 3.75047 19.4768 3.70424 19.4466C3.32013 19.2621 2.9814 18.9952 2.71215 18.6649C2.4429 18.3346 2.24974 17.9491 2.14641 17.5357C2.09427 17.2989 2.05911 17.0587 2.04121 16.8169Z" fill="var(--fill-0, #444444)"/>
<g id="Group 1158">
<path id="Vector_4" d="M24.0136 6.42336C23.9911 6.64877 23.9761 6.87418 23.9485 7.09959C23.9109 7.37008 23.7431 7.52286 23.5227 7.49781C23.3023 7.47277 23.1646 7.29494 23.2047 7.01694C23.3325 6.24948 23.2168 5.46128 22.8741 4.76284C22.4803 3.93946 21.8371 3.26115 21.0357 2.82433C20.8674 2.74369 20.6922 2.67831 20.5123 2.62897C20.4601 2.62107 20.4101 2.60241 20.3655 2.57417C20.3209 2.54593 20.2827 2.50871 20.2533 2.46491C20.2238 2.4211 20.2038 2.37165 20.1945 2.3197C20.1852 2.26775 20.1868 2.21443 20.1992 2.16313C20.2131 2.11213 20.2376 2.06464 20.2711 2.02376C20.3046 1.98288 20.3464 1.94953 20.3937 1.92589C20.4409 1.90225 20.4927 1.88886 20.5455 1.88658C20.5983 1.8843 20.651 1.89319 20.7001 1.91267C21.4433 2.11448 22.11 2.53194 22.6161 3.11235C23.4968 3.99092 23.9985 5.17944 24.0136 6.42336Z" fill="var(--fill-0, #444444)"/>
<path id="Vector_5" d="M21.2486 6.69874C21.2661 6.23602 21.1336 5.78003 20.871 5.39868C20.6083 5.01733 20.2295 4.73102 19.791 4.58239C19.7419 4.56993 19.6958 4.54775 19.6554 4.51714C19.6151 4.48653 19.5813 4.44813 19.5561 4.40421C19.5308 4.3603 19.5147 4.31176 19.5086 4.26149C19.5024 4.21121 19.5065 4.16023 19.5205 4.11154C19.5336 4.06173 19.5571 4.01523 19.5893 3.97506C19.6216 3.93488 19.6619 3.90192 19.7077 3.87832C19.7535 3.85471 19.8038 3.84098 19.8552 3.83801C19.9066 3.83505 19.9581 3.84291 20.0063 3.86109C20.4893 4.01151 20.9229 4.2893 21.2614 4.66525C21.5998 5.04119 21.8308 5.5014 21.9298 5.99747C21.9901 6.31094 22.0053 6.63142 21.9749 6.94919C21.9749 7.24223 21.7896 7.38749 21.5492 7.36495C21.3087 7.34241 21.216 7.17461 21.2336 6.88157L21.2486 6.69874Z" fill="var(--fill-0, #444444)"/>
</g>
</g>
</svg>
