<svg preserveAspectRatio="none" width="100%" height="100%" overflow="visible" style="display: block;" viewBox="0 0 24.7116 23.9999" fill="none" xmlns="http://www.w3.org/2000/svg">
<g id="Group 1707478155">
<path id="Vector" d="M24.7059 23.9999H10.7608V23.0102H23.6552C23.8023 20.0561 22.5025 17.061 19.6536 15.473C19.0322 16.0629 18.3352 16.5627 17.52 16.8624C15.0367 17.7752 12.7768 17.3757 10.7631 15.6559C10.5837 15.5027 10.4669 15.4668 10.278 15.6129C9.84641 15.948 9.40365 16.2686 8.95852 16.6003L8.25781 15.927C8.99617 15.2052 9.82575 14.666 10.7235 14.1807C10.8629 14.3267 10.994 14.4664 11.1274 14.6038C13.3239 16.8688 16.7892 16.8934 19.02 14.66C19.506 14.1733 19.5058 14.174 20.1015 14.5281C23.1421 16.3353 24.5925 19.0572 24.7055 22.5451C24.719 23.0244 24.7059 23.5038 24.7059 23.9999Z" fill="var(--fill-0, #3B4EFC)"/>
<path id="Vector_2" d="M15.0914 3.1436C18.3708 3.13112 21.0484 5.80402 21.0534 9.09523C21.0583 12.3864 18.4061 15.0522 15.1112 15.0688C11.8443 15.0852 9.14492 12.3953 9.13868 9.11653C9.13244 5.8378 11.8073 3.15629 15.0914 3.1436ZM20.037 9.11675C20.0431 6.392 17.845 4.17563 15.12 4.15863C12.4146 4.14185 10.1694 6.3679 10.1576 9.07888C10.1447 11.8073 12.3776 14.0549 15.0985 14.0542C17.8194 14.0536 20.031 11.8417 20.037 9.11675Z" fill="var(--fill-0, #3B4EFC)"/>
<path id="Vector_3" d="M4.67594 13.542C6.02056 14.8285 7.34023 16.0884 8.65259 17.3558C8.71089 17.4121 8.74187 17.5494 8.71885 17.6294C8.51017 18.3583 8.50586 18.357 7.7391 18.357H6.7628C6.84498 20.3566 7.59044 21.951 9.26122 23.0856C9.15171 23.3483 9.0549 23.6067 8.93356 23.8532C8.90323 23.9148 8.78296 23.9845 8.72229 23.9711C6.1191 23.4077 4.03073 22.1659 2.98558 19.5722C2.86164 19.264 2.76363 18.9459 2.69256 18.6214C2.64545 18.4052 2.54777 18.3467 2.34253 18.3534C1.95657 18.3663 1.56953 18.3484 1.18357 18.3605C0.987792 18.3667 0.878716 18.316 0.800836 18.1159C0.551488 17.4739 0.542668 17.4793 1.04222 17.0025C2.16898 15.9285 3.29488 14.8538 4.41992 13.7782C4.49673 13.7051 4.5759 13.6343 4.67594 13.542ZM2.23862 17.2678L2.26594 17.342C2.58241 17.342 2.89931 17.3536 3.21492 17.3379C3.43006 17.3274 3.503 17.3997 3.53247 17.6189C3.81215 19.6941 4.83428 21.261 6.72214 22.2244C6.79077 22.2593 6.86628 22.2803 7.00806 22.3343C5.93236 20.7978 5.68236 19.1298 5.72432 17.3403H7.17565C6.29358 16.4959 5.48594 15.7237 4.66948 14.9432L2.23862 17.2678Z" fill="var(--fill-0, #3B4EFC)"/>
<path id="Vector_4" d="M12.164 2.70673L11.2895 3.13486C10.734 2.11143 9.92052 1.41976 8.79878 1.1362C7.9849 0.930531 7.1792 0.992706 6.40298 1.31993C4.86946 1.96643 3.89832 3.62925 4.11281 5.23591C4.2462 6.23502 4.68745 7.07321 5.46368 7.71928C6.2399 8.36534 7.14586 8.63793 8.17659 8.59791C8.19811 8.93675 8.2179 9.25323 8.23769 9.56604C6.62393 9.81969 3.98717 8.79648 3.23827 6.04807C2.56595 3.57869 3.96845 1.00561 6.43761 0.228529C9.02919 -0.586852 11.3783 0.90622 12.164 2.70673Z" fill="var(--fill-0, #3B4EFC)"/>
<path id="Vector_5" d="M0.96017 15.0975L0 14.9512C0.201586 12.6492 1.69659 10.0015 4.26623 8.80078C5.41873 10.1777 6.88083 10.7469 8.71038 10.3821L8.96984 11.3566C7.09855 11.7618 5.47897 11.3416 4.05582 10.0675C2.23315 11.2508 1.30439 12.9822 0.96017 15.0975Z" fill="var(--fill-0, #3B4EFC)"/>
</g>
</svg>
