<svg preserveAspectRatio="none" width="100%" height="100%" overflow="visible" style="display: block;" viewBox="0 0 52.3449 31.6336" fill="none" xmlns="http://www.w3.org/2000/svg">
<g id="Mask group">
<mask id="mask0_2004_146" style="mask-type:alpha" maskUnits="userSpaceOnUse" x="0" y="0" width="53" height="32">
<path id="Vector" d="M46.7364 0H5.6083C4.12086 0 2.69435 0.357088 1.64257 0.992708C0.590795 1.62833 -8.69027e-05 2.49041 -8.69027e-05 3.38932L-8.69027e-05 28.2443C-8.69027e-05 29.1432 0.590795 30.0053 1.64257 30.6409C2.69435 31.2765 4.12086 31.6336 5.6083 31.6336H21.6448V20.8789H14.2838V15.8168H21.6448V11.9586C21.6448 7.57018 25.9679 5.14611 32.5893 5.14611C35.7604 5.14611 39.0763 5.48787 39.0763 5.48787V9.79513H35.4227C31.8228 9.79513 30.7 11.1452 30.7 12.5299V15.8168H38.7363L37.4511 20.8789H30.7V31.6336H46.7364C48.2239 31.6336 49.6504 31.2765 50.7022 30.6409C51.7539 30.0053 52.3448 29.1432 52.3448 28.2443V3.38932C52.3448 2.49041 51.7539 1.62833 50.7022 0.992708C49.6504 0.357088 48.2239 0 46.7364 0Z" fill="var(--fill-0, black)"/>
</mask>
<g mask="url(#mask0_2004_146)">
<rect id="Rectangle 3129" x="-5.47794" y="1419.56" width="62.0835" height="67.5615" fill="var(--fill-0, #3B4EFC)"/>
</g>
</g>
</svg>
