<svg preserveAspectRatio="none" width="100%" height="100%" overflow="visible" style="display: block;" viewBox="0 0 52.3449 34.6951" fill="none" xmlns="http://www.w3.org/2000/svg">
<g id="Mask group">
<mask id="mask0_2004_150" style="mask-type:alpha" maskUnits="userSpaceOnUse" x="0" y="0" width="53" height="35">
<path id="Vector" d="M46.7366 0H5.60847C4.12104 0 2.69452 0.391646 1.64275 1.08878C0.590969 1.78591 8.77844e-05 2.73143 8.77844e-05 3.71733L8.77844e-05 30.9777C8.77844e-05 31.9636 0.590969 32.9091 1.64275 33.6063C2.69452 34.3034 4.12104 34.6951 5.60847 34.6951H21.6449V22.8995H14.2839V17.3475H21.6449V13.116C21.6449 8.30281 25.9681 5.64414 32.5895 5.64414C35.7605 5.64414 39.0765 6.01897 39.0765 6.01897V10.7431H35.4229C31.823 10.7431 30.7001 12.2238 30.7001 13.7425V17.3475H38.7365L37.4512 22.8995H30.7001V34.6951H46.7366C48.224 34.6951 49.6506 34.3034 50.7023 33.6063C51.7541 32.9091 52.345 31.9636 52.345 30.9777V3.71733C52.345 2.73143 51.7541 1.78591 50.7023 1.08878C49.6506 0.391646 48.224 0 46.7366 0Z" fill="var(--fill-0, black)"/>
</mask>
<g mask="url(#mask0_2004_150)">
<rect id="Rectangle 3129" x="-5.47789" y="916.941" width="62.0835" height="67.5615" fill="var(--fill-0, #3B4EFC)"/>
</g>
</g>
</svg>
