<svg preserveAspectRatio="none" width="100%" height="100%" overflow="visible" style="display: block;" viewBox="0 0 883.547 582.146" fill="none" xmlns="http://www.w3.org/2000/svg">
<g id="Group">
<path id="Vector" d="M2.02768e-06 582.146L260.858 325.047L265.548 320.393L270.237 325.377L348.568 408.316L336.258 407.839L559.783 188.893L569.748 179.108L579.896 189.48L645.99 257.025L622.762 257.098L791.697 68.7551L821.63 96.6456L646.064 278.795L634.083 291.219L622.836 278.868L559.196 209.014L579.31 209.564L348.092 420.373L341.497 426.384L335.818 419.934L260.528 334.21L269.908 334.54L2.02768e-06 582.146Z" fill="var(--fill-0, #E3FF3B)"/>
<g id="Group_2">
<path id="Vector_2" d="M848.485 152.976L883.547 2.73427e-07L733.59 46.0688L848.485 152.976Z" fill="var(--fill-0, #E3FF3B)"/>
</g>
</g>
</svg>
