<svg preserveAspectRatio="none" width="100%" height="100%" overflow="visible" style="display: block;" viewBox="0 0 194.142 258.638" fill="none" xmlns="http://www.w3.org/2000/svg">
<g id="Group">
<path id="Vector" d="M173.588 125.562C181.648 115.154 186.484 102.143 186.484 87.9962V84.6244C186.484 51.9694 160.875 25.2151 128.707 23.2726V0H87.7099V23.0894H70.8933V0H29.8961V23.0894H20.3338H0V64.1005H20.3338V108.483V149.495V198.789H0V239.8H20.3338H29.8961V258.638H70.8933V239.8H87.7099V258.638H128.707V239.8H130.283C165.491 239.8 194.142 211.14 194.142 175.919V172.364C194.142 153.856 186.191 137.217 173.588 125.562ZM61.331 64.1005H70.0507H125.007C136.328 64.1005 145.524 73.2996 145.524 84.6244V87.9962C145.524 99.321 136.328 108.52 125.007 108.52H61.331V64.1005ZM153.144 175.919C153.144 188.527 142.886 198.789 130.283 198.789H70.0507H61.331V149.495H124.97H130.246C142.849 149.495 153.108 159.757 153.108 172.364V175.919H153.144Z" fill="var(--fill-0, #004A88)"/>
</g>
</svg>
